NotoSansThaana-Bold.ufo
<glyph name="exclam" format="2">
  <advance width="421.5"/>
  <unicode hex="0021"/>
  <outline>
    <contour>
      <point x="138" y="233" type="line"/>
      <point x="264" y="233" type="line"/>
      <point x="386" y="714" type="line"/>
      <point x="223" y="714" type="line"/>
    </contour>
    <contour>
      <point x="159" y="-11" type="curve" smooth="yes"/>
      <point x="215" y="-11"/>
      <point x="253" y="22"/>
      <point x="253" y="83" type="curve" smooth="yes"/>
      <point x="253" y="122"/>
      <point x="228" y="146"/>
      <point x="182" y="146" type="curve" smooth="yes"/>
      <point x="117" y="146"/>
      <point x="85" y="103"/>
      <point x="85" y="50" type="curve" smooth="yes"/>
      <point x="85" y="18"/>
      <point x="104" y="-11"/>
    </contour>
  </outline>
</glyph>
<glyph name="quotedbl" format="2">
  <advance width="418"/>
  <unicode hex="0022"/>
  <outline>
    <contour>
      <point x="289" y="482" type="line"/>
      <point x="379" y="482" type="line"/>
      <point x="444" y="714" type="line"/>
      <point x="325" y="714" type="line"/>
    </contour>
    <contour>
      <point x="113" y="482" type="line"/>
      <point x="201" y="482" type="line"/>
      <point x="267" y="714" type="line"/>
      <point x="148" y="714" type="line"/>
    </contour>
  </outline>
</glyph>
<glyph name="quotesingle" format="2">
  <advance width="221.5"/>
  <unicode hex="0027"/>
  <outline>
    <contour>
      <point x="103" y="482" type="line"/>
      <point x="192" y="482" type="line"/>
      <point x="257" y="714" type="line"/>
      <point x="138" y="714" type="line"/>
    </contour>
  </outline>
</glyph>
<glyph name="parenleft" format="2">
  <advance width="492"/>
  <unicode hex="0028"/>
  <outline>
    <contour>
      <point x="172" y="-158" type="curve"/>
      <point x="293" y="-158" type="line"/>
      <point x="254" y="-69"/>
      <point x="233" y="47"/>
      <point x="233" y="143" type="curve" smooth="yes"/>
      <point x="233" y="381"/>
      <point x="336" y="575"/>
      <point x="482" y="729" type="curve"/>
      <point x="349" y="729" type="line"/>
      <point x="192" y="570"/>
      <point x="100" y="380"/>
      <point x="100" y="149" type="curve" smooth="yes"/>
      <point x="100" y="44"/>
      <point x="126" y="-77"/>
    </contour>
  </outline>
</glyph>
<glyph name="parenright" format="2">
  <advance width="512"/>
  <unicode hex="0029"/>
  <outline>
    <contour>
      <point x="5" y="-158" type="curve"/>
      <point x="138" y="-158" type="line"/>
      <point x="295" y="2"/>
      <point x="383" y="191"/>
      <point x="383" y="422" type="curve" smooth="yes"/>
      <point x="383" y="527"/>
      <point x="360" y="644"/>
      <point x="312" y="729" type="curve"/>
      <point x="190" y="729" type="line"/>
      <point x="229" y="640"/>
      <point x="251" y="524"/>
      <point x="251" y="428" type="curve" smooth="yes"/>
      <point x="251" y="191"/>
      <point x="151" y="-4"/>
    </contour>
  </outline>
</glyph>
<glyph name="comma" format="2">
  <advance width="381.25"/>
  <unicode hex="002C"/>
  <outline>
    <contour>
      <point x="186" y="-3" type="curve" smooth="yes"/>
      <point x="251" y="-3"/>
      <point x="275" y="18"/>
      <point x="275" y="60" type="curve" smooth="yes"/>
      <point x="275" y="100"/>
      <point x="265" y="108"/>
      <point x="221" y="120" type="curve"/>
      <point x="222" y="135"/>
      <point x="247" y="190"/>
      <point x="271" y="232" type="curve"/>
      <point x="180" y="275" type="line"/>
      <point x="141" y="212"/>
      <point x="98" y="115"/>
      <point x="98" y="62" type="curve" smooth="yes"/>
      <point x="98" y="15"/>
      <point x="132" y="-3"/>
    </contour>
  </outline>
</glyph>
<glyph name="period" format="2">
  <advance width="381.25"/>
  <unicode hex="002E"/>
  <outline>
    <contour>
      <point x="156" y="-11" type="curve" smooth="yes"/>
      <point x="228" y="-11"/>
      <point x="262" y="13"/>
      <point x="262" y="86" type="curve" smooth="yes"/>
      <point x="262" y="138"/>
      <point x="239" y="154"/>
      <point x="186" y="154" type="curve" smooth="yes"/>
      <point x="117" y="154"/>
      <point x="85" y="131"/>
      <point x="85" y="60" type="curve" smooth="yes"/>
      <point x="85" y="8"/>
      <point x="106" y="-11"/>
    </contour>
  </outline>
</glyph>
<glyph name="zero" format="2">
  <advance width="582"/>
  <unicode hex="0030"/>
  <outline>
    <contour>
      <point x="540" y="357" type="curve" smooth="yes"/>
      <point x="540" y="585"/>
      <point x="468" y="724"/>
      <point x="291" y="724" type="curve" smooth="yes"/>
      <point x="106" y="724"/>
      <point x="42" y="583"/>
      <point x="42" y="357" type="curve" smooth="yes"/>
      <point x="42" y="122"/>
      <point x="121" y="-10"/>
      <point x="291" y="-10" type="curve" smooth="yes"/>
      <point x="472" y="-10"/>
      <point x="540" y="123"/>
    </contour>
    <contour>
      <point x="193" y="357" type="curve" smooth="yes"/>
      <point x="193" y="512"/>
      <point x="213" y="603"/>
      <point x="291" y="603" type="curve" smooth="yes"/>
      <point x="370" y="603"/>
      <point x="389" y="514"/>
      <point x="389" y="357" type="curve" smooth="yes"/>
      <point x="389" y="193"/>
      <point x="365" y="112"/>
      <point x="291" y="112" type="curve" smooth="yes"/>
      <point x="218" y="112"/>
      <point x="193" y="193"/>
    </contour>
  </outline>
</glyph>
<glyph name="one" format="2">
  <advance width="582"/>
  <unicode hex="0031"/>
  <outline>
    <contour>
      <point x="425" y="0" type="line"/>
      <point x="425" y="714" type="line"/>
      <point x="289" y="714" type="line"/>
      <point x="56" y="529" type="line"/>
      <point x="135" y="431" type="line"/>
      <point x="227" y="504" type="line" smooth="yes"/>
      <point x="244" y="518"/>
      <point x="257" y="531"/>
      <point x="274" y="549" type="curve"/>
      <point x="272" y="504"/>
      <point x="272" y="434"/>
      <point x="272" y="406" type="curve" smooth="yes"/>
      <point x="272" y="0" type="line"/>
    </contour>
  </outline>
</glyph>
<glyph name="two" format="2">
  <advance width="582"/>
  <unicode hex="0032"/>
  <outline>
    <contour>
      <point x="534" y="0" type="line"/>
      <point x="534" y="126" type="line"/>
      <point x="232" y="126" type="line"/>
      <point x="232" y="130" type="line"/>
      <point x="323" y="220" type="line" smooth="yes"/>
      <point x="446" y="341"/>
      <point x="515" y="409"/>
      <point x="515" y="532" type="curve" smooth="yes"/>
      <point x="515" y="644"/>
      <point x="427" y="724"/>
      <point x="290" y="724" type="curve" smooth="yes"/>
      <point x="168" y="724"/>
      <point x="100" y="677"/>
      <point x="37" y="621" type="curve"/>
      <point x="120" y="523" type="line"/>
      <point x="177" y="572"/>
      <point x="225" y="596"/>
      <point x="273" y="596" type="curve" smooth="yes"/>
      <point x="326" y="596"/>
      <point x="365" y="568"/>
      <point x="365" y="511" type="curve" smooth="yes"/>
      <point x="365" y="445"/>
      <point x="330" y="401"/>
      <point x="224" y="292" type="curve" smooth="yes"/>
      <point x="37" y="101" type="line"/>
      <point x="37" y="0" type="line"/>
    </contour>
  </outline>
</glyph>
<glyph name="three" format="2">
  <advance width="582"/>
  <unicode hex="0033"/>
  <outline>
    <contour>
      <point x="511" y="557" type="curve" smooth="yes"/>
      <point x="511" y="663"/>
      <point x="424" y="724"/>
      <point x="284" y="724" type="curve" smooth="yes"/>
      <point x="169" y="724"/>
      <point x="99" y="693"/>
      <point x="40" y="652" type="curve"/>
      <point x="104" y="550" type="line"/>
      <point x="136" y="571"/>
      <point x="194" y="602"/>
      <point x="261" y="602" type="curve" smooth="yes"/>
      <point x="323" y="602"/>
      <point x="364" y="576"/>
      <point x="364" y="523" type="curve" smooth="yes"/>
      <point x="364" y="461"/>
      <point x="311" y="425"/>
      <point x="202" y="425" type="curve" smooth="yes"/>
      <point x="148" y="425" type="line"/>
      <point x="148" y="310" type="line"/>
      <point x="202" y="310" type="line" smooth="yes"/>
      <point x="327" y="310"/>
      <point x="372" y="277"/>
      <point x="372" y="211" type="curve" smooth="yes"/>
      <point x="372" y="150"/>
      <point x="333" y="110"/>
      <point x="226" y="110" type="curve" smooth="yes"/>
      <point x="167" y="110"/>
      <point x="96" y="127"/>
      <point x="37" y="157" type="curve"/>
      <point x="37" y="30" type="line"/>
      <point x="96" y="6"/>
      <point x="158" y="-10"/>
      <point x="247" y="-10" type="curve" smooth="yes"/>
      <point x="442" y="-10"/>
      <point x="532" y="83"/>
      <point x="532" y="202" type="curve" smooth="yes"/>
      <point x="532" y="304"/>
      <point x="467" y="359"/>
      <point x="354" y="373" type="curve"/>
      <point x="354" y="376" type="line"/>
      <point x="440" y="397"/>
      <point x="511" y="457"/>
    </contour>
  </outline>
</glyph>
<glyph name="four" format="2">
  <advance width="582"/>
  <unicode hex="0034"/>
  <outline>
    <contour>
      <point x="568" y="152" type="line"/>
      <point x="568" y="266" type="line"/>
      <point x="476" y="266" type="line"/>
      <point x="476" y="715" type="line"/>
      <point x="335" y="715" type="line"/>
      <point x="19" y="263" type="line"/>
      <point x="19" y="152" type="line"/>
      <point x="327" y="152" type="line"/>
      <point x="327" y="0" type="line"/>
      <point x="476" y="0" type="line"/>
      <point x="476" y="152" type="line"/>
    </contour>
    <contour>
      <point x="327" y="266" type="line"/>
      <point x="153" y="266" type="line"/>
      <point x="281" y="448" type="line" smooth="yes"/>
      <point x="302" y="478"/>
      <point x="310" y="493"/>
      <point x="326" y="524" type="curve"/>
      <point x="330" y="524" type="line"/>
      <point x="329" y="510"/>
      <point x="327" y="449"/>
      <point x="327" y="405" type="curve" smooth="yes"/>
    </contour>
  </outline>
</glyph>
<glyph name="five" format="2">
  <advance width="582"/>
  <unicode hex="0035"/>
  <outline>
    <contour>
      <point x="312" y="458" type="curve" smooth="yes"/>
      <point x="259" y="458"/>
      <point x="236" y="453"/>
      <point x="212" y="446" type="curve"/>
      <point x="225" y="587" type="line"/>
      <point x="485" y="587" type="line"/>
      <point x="485" y="714" type="line"/>
      <point x="96" y="714" type="line"/>
      <point x="68" y="351" type="line"/>
      <point x="126" y="321" type="line"/>
      <point x="158" y="331"/>
      <point x="196" y="340"/>
      <point x="239" y="340" type="curve" smooth="yes"/>
      <point x="332" y="340"/>
      <point x="378" y="297"/>
      <point x="378" y="228" type="curve" smooth="yes"/>
      <point x="378" y="152"/>
      <point x="326" y="110"/>
      <point x="239" y="110" type="curve" smooth="yes"/>
      <point x="176" y="110"/>
      <point x="102" y="132"/>
      <point x="53" y="156" type="curve"/>
      <point x="53" y="30" type="line"/>
      <point x="103" y="4"/>
      <point x="169" y="-10"/>
      <point x="251" y="-10" type="curve" smooth="yes"/>
      <point x="435" y="-10"/>
      <point x="531" y="78"/>
      <point x="531" y="233" type="curve" smooth="yes"/>
      <point x="531" y="377"/>
      <point x="437" y="458"/>
    </contour>
  </outline>
</glyph>
<glyph name="six" format="2">
  <advance width="582"/>
  <unicode hex="0036"/>
  <outline>
    <contour>
      <point x="43" y="302" type="curve" smooth="yes"/>
      <point x="43" y="103"/>
      <point x="144" y="-10"/>
      <point x="302" y="-10" type="curve" smooth="yes"/>
      <point x="453" y="-10"/>
      <point x="545" y="85"/>
      <point x="545" y="239" type="curve" smooth="yes"/>
      <point x="545" y="383"/>
      <point x="470" y="467"/>
      <point x="343" y="467" type="curve" smooth="yes"/>
      <point x="257" y="467"/>
      <point x="210" y="425"/>
      <point x="184" y="375" type="curve"/>
      <point x="179" y="375" type="line"/>
      <point x="185" y="531"/>
      <point x="249" y="606"/>
      <point x="395" y="606" type="curve" smooth="yes"/>
      <point x="441" y="606"/>
      <point x="473" y="601"/>
      <point x="499" y="595" type="curve"/>
      <point x="499" y="715" type="line"/>
      <point x="472" y="720"/>
      <point x="429" y="725"/>
      <point x="398" y="725" type="curve" smooth="yes"/>
      <point x="118" y="725"/>
      <point x="43" y="532"/>
    </contour>
    <contour>
      <point x="299" y="111" type="curve" smooth="yes"/>
      <point x="220" y="111"/>
      <point x="195" y="194"/>
      <point x="195" y="252" type="curve" smooth="yes"/>
      <point x="195" y="297"/>
      <point x="234" y="349"/>
      <point x="302" y="349" type="curve" smooth="yes"/>
      <point x="368" y="349"/>
      <point x="398" y="306"/>
      <point x="398" y="236" type="curve" smooth="yes"/>
      <point x="398" y="154"/>
      <point x="360" y="111"/>
    </contour>
  </outline>
</glyph>
<glyph name="seven" format="2">
  <advance width="582"/>
  <unicode hex="0037"/>
  <outline>
    <contour>
      <point x="122" y="0" type="line"/>
      <point x="280" y="0" type="line"/>
      <point x="542" y="624" type="line"/>
      <point x="542" y="714" type="line"/>
      <point x="43" y="714" type="line"/>
      <point x="43" y="588" type="line"/>
      <point x="380" y="588" type="line"/>
    </contour>
  </outline>
</glyph>
<glyph name="eight" format="2">
  <advance width="582"/>
  <unicode hex="0038"/>
  <outline>
    <contour>
      <point x="292" y="724" type="curve" smooth="yes"/>
      <point x="158" y="724"/>
      <point x="62" y="664"/>
      <point x="62" y="553" type="curve" smooth="yes"/>
      <point x="62" y="466"/>
      <point x="118" y="414"/>
      <point x="185" y="375" type="curve"/>
      <point x="101" y="336"/>
      <point x="41" y="286"/>
      <point x="41" y="185" type="curve" smooth="yes"/>
      <point x="41" y="69"/>
      <point x="122" y="-10"/>
      <point x="290" y="-10" type="curve" smooth="yes"/>
      <point x="456" y="-10"/>
      <point x="541" y="71"/>
      <point x="541" y="188" type="curve" smooth="yes"/>
      <point x="541" y="284"/>
      <point x="466" y="339"/>
      <point x="386" y="378" type="curve"/>
      <point x="465" y="414"/>
      <point x="520" y="466"/>
      <point x="520" y="553" type="curve" smooth="yes"/>
      <point x="520" y="667"/>
      <point x="429" y="724"/>
    </contour>
    <contour>
      <point x="180" y="191" type="curve" smooth="yes"/>
      <point x="180" y="250"/>
      <point x="229" y="284"/>
      <point x="289" y="310" type="curve"/>
      <point x="305" y="302" type="line" smooth="yes"/>
      <point x="351" y="279"/>
      <point x="402" y="244"/>
      <point x="402" y="189" type="curve" smooth="yes"/>
      <point x="402" y="133"/>
      <point x="361" y="101"/>
      <point x="288" y="101" type="curve" smooth="yes"/>
      <point x="222" y="101"/>
      <point x="180" y="136"/>
    </contour>
    <contour>
      <point x="291" y="614" type="curve" smooth="yes"/>
      <point x="341" y="614"/>
      <point x="377" y="587"/>
      <point x="377" y="540" type="curve" smooth="yes"/>
      <point x="377" y="491"/>
      <point x="335" y="465"/>
      <point x="291" y="443" type="curve"/>
      <point x="241" y="465"/>
      <point x="205" y="495"/>
      <point x="205" y="540" type="curve" smooth="yes"/>
      <point x="205" y="586"/>
      <point x="243" y="614"/>
    </contour>
  </outline>
</glyph>
<glyph name="nine" format="2">
  <advance width="582"/>
  <unicode hex="0039"/>
  <outline>
    <contour>
      <point x="540" y="394" type="curve" smooth="yes"/>
      <point x="540" y="610"/>
      <point x="434" y="722"/>
      <point x="277" y="722" type="curve" smooth="yes"/>
      <point x="125" y="722"/>
      <point x="33" y="628"/>
      <point x="33" y="474" type="curve" smooth="yes"/>
      <point x="33" y="330"/>
      <point x="110" y="246"/>
      <point x="233" y="246" type="curve" smooth="yes"/>
      <point x="333" y="246"/>
      <point x="372" y="287"/>
      <point x="398" y="337" type="curve"/>
      <point x="403" y="337" type="line"/>
      <point x="398" y="198"/>
      <point x="336" y="109"/>
      <point x="169" y="109" type="curve" smooth="yes"/>
      <point x="136" y="109"/>
      <point x="106" y="113"/>
      <point x="79" y="119" type="curve"/>
      <point x="79" y="-3" type="line"/>
      <point x="106" y="-8"/>
      <point x="149" y="-10"/>
      <point x="181" y="-10" type="curve" smooth="yes"/>
      <point x="432" y="-10"/>
      <point x="540" y="119"/>
    </contour>
    <contour>
      <point x="280" y="601" type="curve" smooth="yes"/>
      <point x="358" y="601"/>
      <point x="388" y="518"/>
      <point x="388" y="460" type="curve" smooth="yes"/>
      <point x="388" y="415"/>
      <point x="344" y="363"/>
      <point x="278" y="363" type="curve" smooth="yes"/>
      <point x="213" y="363"/>
      <point x="180" y="406"/>
      <point x="180" y="475" type="curve" smooth="yes"/>
      <point x="180" y="559"/>
      <point x="219" y="601"/>
    </contour>
  </outline>
</glyph>
<glyph name="question-ar" format="2">
  <advance width="479"/>
  <unicode hex="061F"/>
  <outline>
    <contour>
      <point x="193" y="239" type="curve"/>
      <point x="320" y="239" type="line"/>
      <point x="327" y="266" type="line" smooth="yes"/>
      <point x="346" y="338"/>
      <point x="331" y="380"/>
      <point x="288" y="421" type="curve" smooth="yes"/>
      <point x="260" y="448" type="line" smooth="yes"/>
      <point x="233" y="474"/>
      <point x="216" y="496"/>
      <point x="216" y="529" type="curve" smooth="yes"/>
      <point x="216" y="580"/>
      <point x="253" y="608"/>
      <point x="307" y="608" type="curve" smooth="yes"/>
      <point x="349" y="608"/>
      <point x="401" y="585"/>
      <point x="444" y="555" type="curve"/>
      <point x="521" y="663" type="line"/>
      <point x="465" y="700"/>
      <point x="394" y="724"/>
      <point x="311" y="724" type="curve" smooth="yes"/>
      <point x="153" y="724"/>
      <point x="80" y="636"/>
      <point x="80" y="530" type="curve" smooth="yes"/>
      <point x="80" y="466"/>
      <point x="106" y="422"/>
      <point x="138" y="393" type="curve" smooth="yes"/>
      <point x="164" y="369" type="line" smooth="yes"/>
      <point x="197" y="338"/>
      <point x="204" y="317"/>
      <point x="204" y="285" type="curve" smooth="yes"/>
      <point x="204" y="269"/>
      <point x="199" y="255"/>
    </contour>
    <contour>
      <point x="203" y="-11" type="curve" smooth="yes"/>
      <point x="263" y="-11"/>
      <point x="302" y="14"/>
      <point x="302" y="83" type="curve" smooth="yes"/>
      <point x="302" y="125"/>
      <point x="273" y="146"/>
      <point x="230" y="146" type="curve" smooth="yes"/>
      <point x="177" y="146"/>
      <point x="133" y="114"/>
      <point x="133" y="50" type="curve" smooth="yes"/>
      <point x="133" y="8"/>
      <point x="161" y="-11"/>
    </contour>
  </outline>
</glyph>
<glyph name="zero-ar" format="2">
  <advance width="330.5"/>
  <unicode hex="0660"/>
  <outline>
    <contour>
      <point x="173" y="186" type="curve"/>
      <point x="276" y="290" type="line"/>
      <point x="245" y="328"/>
      <point x="201" y="373"/>
      <point x="155" y="407" type="curve"/>
      <point x="55" y="300" type="line"/>
      <point x="101" y="262"/>
      <point x="129" y="233"/>
    </contour>
  </outline>
</glyph>
<glyph name="one-ar" format="2">
  <advance width="316.75"/>
  <unicode hex="0661"/>
  <outline>
    <contour>
      <point x="262" y="1" type="line"/>
      <point x="262" y="133"/>
      <point x="241" y="465"/>
      <point x="173" y="688" type="curve"/>
      <point x="35" y="652" type="line"/>
      <point x="94" y="433"/>
      <point x="124" y="62"/>
      <point x="124" y="-5" type="curve"/>
    </contour>
  </outline>
</glyph>
<glyph name="two-ar" format="2">
  <advance width="540.75"/>
  <unicode hex="0662"/>
  <outline>
    <contour>
      <point x="259" y="1" type="line"/>
      <point x="259" y="129"/>
      <point x="238" y="465"/>
      <point x="170" y="688" type="curve"/>
      <point x="35" y="652" type="line"/>
      <point x="94" y="433"/>
      <point x="124" y="62"/>
      <point x="124" y="-5" type="curve"/>
    </contour>
    <contour>
      <point x="292" y="421" type="curve" smooth="yes"/>
      <point x="445" y="421"/>
      <point x="506" y="496"/>
      <point x="521" y="661" type="curve"/>
      <point x="399" y="677" type="line"/>
      <point x="390" y="581"/>
      <point x="363" y="548"/>
      <point x="287" y="548" type="curve" smooth="yes"/>
      <point x="249" y="548"/>
      <point x="198" y="559"/>
      <point x="162" y="573" type="curve"/>
      <point x="162" y="446" type="line"/>
      <point x="210" y="431"/>
      <point x="247" y="421"/>
    </contour>
  </outline>
</glyph>
<glyph name="three-ar" format="2">
  <advance width="634.5"/>
  <unicode hex="0663"/>
  <outline>
    <contour>
      <point x="259" y="1" type="line"/>
      <point x="259" y="129"/>
      <point x="238" y="465"/>
      <point x="170" y="688" type="curve"/>
      <point x="35" y="652" type="line"/>
      <point x="94" y="433"/>
      <point x="124" y="62"/>
      <point x="124" y="-5" type="curve"/>
    </contour>
    <contour>
      <point x="271" y="409" type="curve" smooth="yes"/>
      <point x="320" y="409"/>
      <point x="354" y="440"/>
      <point x="370" y="494" type="curve"/>
      <point x="353" y="494" type="line"/>
      <point x="360" y="447"/>
      <point x="395" y="413"/>
      <point x="467" y="413" type="curve" smooth="yes"/>
      <point x="561" y="413"/>
      <point x="615" y="471"/>
      <point x="615" y="557" type="curve" smooth="yes"/>
      <point x="615" y="587"/>
      <point x="608" y="629"/>
      <point x="587" y="682" type="curve"/>
      <point x="485" y="653" type="line"/>
      <point x="494" y="628"/>
      <point x="500" y="603"/>
      <point x="500" y="582" type="curve" smooth="yes"/>
      <point x="500" y="559"/>
      <point x="492" y="535"/>
      <point x="448" y="535" type="curve" smooth="yes"/>
      <point x="420" y="535"/>
      <point x="403" y="545"/>
      <point x="403" y="572" type="curve" smooth="yes"/>
      <point x="403" y="583"/>
      <point x="406" y="602"/>
      <point x="413" y="645" type="curve"/>
      <point x="313" y="657" type="line"/>
      <point x="300" y="555"/>
      <point x="284" y="531"/>
      <point x="255" y="531" type="curve" smooth="yes"/>
      <point x="227" y="531"/>
      <point x="210" y="554"/>
      <point x="207" y="563" type="curve" smooth="yes"/>
      <point x="170" y="685" type="line"/>
      <point x="177" y="484" type="line"/>
      <point x="183" y="452"/>
      <point x="213" y="409"/>
    </contour>
  </outline>
</glyph>
<glyph name="four-ar" format="2">
  <advance width="491"/>
  <unicode hex="0664"/>
  <outline>
    <contour>
      <point x="445" y="148" type="line"/>
      <point x="407" y="134"/>
      <point x="350" y="120"/>
      <point x="297" y="120" type="curve" smooth="yes"/>
      <point x="236" y="120"/>
      <point x="185" y="141"/>
      <point x="185" y="181" type="curve" smooth="yes"/>
      <point x="185" y="229"/>
      <point x="254" y="267"/>
      <point x="334" y="301" type="curve"/>
      <point x="321" y="407" type="line"/>
      <point x="253" y="390"/>
      <point x="175" y="405"/>
      <point x="175" y="444" type="curve" smooth="yes"/>
      <point x="175" y="486"/>
      <point x="252" y="545"/>
      <point x="358" y="570" type="curve"/>
      <point x="318" y="691" type="line"/>
      <point x="101" y="631"/>
      <point x="50" y="509"/>
      <point x="50" y="445" type="curve" smooth="yes"/>
      <point x="50" y="395"/>
      <point x="94" y="351"/>
      <point x="161" y="329" type="curve"/>
      <point x="87" y="281"/>
      <point x="45" y="224"/>
      <point x="45" y="161" type="curve" smooth="yes"/>
      <point x="45" y="70"/>
      <point x="127" y="-6"/>
      <point x="292" y="-6" type="curve" smooth="yes"/>
      <point x="359" y="-6"/>
      <point x="425" y="7"/>
      <point x="475" y="33" type="curve"/>
    </contour>
  </outline>
</glyph>
<glyph name="five-ar" format="2">
  <advance width="550.25"/>
  <unicode hex="0665"/>
  <outline>
    <contour>
      <point x="275" y="0" type="curve" smooth="yes"/>
      <point x="420" y="0"/>
      <point x="495" y="96"/>
      <point x="495" y="246" type="curve" smooth="yes"/>
      <point x="495" y="399"/>
      <point x="417" y="534"/>
      <point x="283" y="534" type="curve" smooth="yes"/>
      <point x="151" y="534"/>
      <point x="55" y="401"/>
      <point x="55" y="234" type="curve" smooth="yes"/>
      <point x="55" y="67"/>
      <point x="134" y="0"/>
    </contour>
    <contour>
      <point x="272" y="127" type="curve" smooth="yes"/>
      <point x="220" y="127"/>
      <point x="183" y="155"/>
      <point x="183" y="231" type="curve" smooth="yes"/>
      <point x="183" y="308"/>
      <point x="216" y="404"/>
      <point x="278" y="404" type="curve" smooth="yes"/>
      <point x="334" y="404"/>
      <point x="363" y="318"/>
      <point x="363" y="234" type="curve" smooth="yes"/>
      <point x="363" y="178"/>
      <point x="338" y="127"/>
    </contour>
  </outline>
</glyph>
<glyph name="six-ar" format="2">
  <advance width="531.5"/>
  <unicode hex="0666"/>
  <outline>
    <contour>
      <point x="342" y="0" type="curve"/>
      <point x="482" y="9" type="line"/>
      <point x="446" y="196"/>
      <point x="408" y="464"/>
      <point x="409" y="678" type="curve"/>
      <point x="296" y="648" type="line"/>
      <point x="274" y="613" type="line"/>
      <point x="274" y="351"/>
      <point x="325" y="76"/>
    </contour>
    <contour>
      <point x="336" y="538" type="curve"/>
      <point x="409" y="678" type="line"/>
      <point x="281" y="653"/>
      <point x="130" y="659"/>
      <point x="35" y="692" type="curve"/>
      <point x="10" y="560" type="line"/>
      <point x="95" y="523"/>
      <point x="259" y="514"/>
    </contour>
  </outline>
</glyph>
<glyph name="seven-ar" format="2">
  <advance width="605.75"/>
  <unicode hex="0667"/>
  <outline>
    <contour>
      <point x="241" y="-7" type="line"/>
      <point x="373" y="11" type="line"/>
      <point x="414" y="182"/>
      <point x="506" y="450"/>
      <point x="596" y="641" type="curve"/>
      <point x="473" y="693" type="line"/>
      <point x="412" y="555"/>
      <point x="331" y="327"/>
      <point x="292" y="116" type="curve"/>
    </contour>
    <contour>
      <point x="241" y="-7" type="curve"/>
      <point x="369" y="12" type="line"/>
      <point x="317" y="139" type="line"/>
      <point x="268" y="316"/>
      <point x="198" y="544"/>
      <point x="136" y="693" type="curve"/>
      <point x="10" y="645" type="line"/>
      <point x="87" y="473"/>
      <point x="191" y="164"/>
    </contour>
  </outline>
</glyph>
<glyph name="eight-ar" format="2">
  <advance width="607.5"/>
  <unicode hex="0668"/>
  <outline>
    <contour>
      <point x="133" y="-13" type="line"/>
      <point x="195" y="125"/>
      <point x="280" y="350"/>
      <point x="319" y="562" type="curve"/>
      <point x="366" y="685" type="line"/>
      <point x="233" y="659" type="line"/>
      <point x="192" y="487"/>
      <point x="100" y="230"/>
      <point x="10" y="39" type="curve"/>
    </contour>
    <contour>
      <point x="472" y="-15" type="curve"/>
      <point x="598" y="33" type="line"/>
      <point x="520" y="206"/>
      <point x="416" y="511"/>
      <point x="367" y="685" type="curve"/>
      <point x="237" y="657" type="line"/>
      <point x="289" y="539" type="line"/>
      <point x="339" y="363"/>
      <point x="409" y="133"/>
    </contour>
  </outline>
</glyph>
<glyph name="nine-ar" format="2">
  <advance width="549"/>
  <unicode hex="0669"/>
  <outline>
    <contour>
      <point x="369" y="0" type="curve"/>
      <point x="499" y="23" type="line"/>
      <point x="476" y="124"/>
      <point x="462" y="266"/>
      <point x="454" y="402" type="curve" smooth="yes"/>
      <point x="446" y="547"/>
      <point x="403" y="683"/>
      <point x="248" y="683" type="curve" smooth="yes"/>
      <point x="117" y="683"/>
      <point x="20" y="576"/>
      <point x="20" y="451" type="curve" smooth="yes"/>
      <point x="20" y="328"/>
      <point x="102" y="262"/>
      <point x="232" y="262" type="curve" smooth="yes"/>
      <point x="274" y="262"/>
      <point x="320" y="270"/>
      <point x="367" y="289" type="curve"/>
      <point x="345" y="413" type="line"/>
      <point x="314" y="398"/>
      <point x="282" y="391"/>
      <point x="245" y="391" type="curve" smooth="yes"/>
      <point x="189" y="391"/>
      <point x="163" y="428"/>
      <point x="163" y="472" type="curve" smooth="yes"/>
      <point x="163" y="513"/>
      <point x="191" y="551"/>
      <point x="233" y="551" type="curve" smooth="yes"/>
      <point x="294" y="551"/>
      <point x="312" y="486"/>
      <point x="319" y="397" type="curve" smooth="yes"/>
      <point x="330" y="283"/>
      <point x="333" y="130"/>
    </contour>
  </outline>
</glyph>
<glyph name="percent-ar" format="2">
  <advance width="555.75"/>
  <unicode hex="066A"/>
  <outline>
    <contour>
      <point x="172" y="-31" type="line"/>
      <point x="491" y="653" type="line"/>
      <point x="383" y="700" type="line"/>
      <point x="66" y="13" type="line"/>
    </contour>
    <contour>
      <point x="435" y="-20" type="curve"/>
      <point x="521" y="66" type="line"/>
      <point x="494" y="98"/>
      <point x="459" y="135"/>
      <point x="420" y="164" type="curve"/>
      <point x="336" y="74" type="line"/>
      <point x="375" y="42"/>
      <point x="398" y="19"/>
    </contour>
    <contour>
      <point x="145" y="512" type="curve"/>
      <point x="231" y="598" type="line"/>
      <point x="205" y="631"/>
      <point x="169" y="667"/>
      <point x="131" y="697" type="curve"/>
      <point x="47" y="607" type="line"/>
      <point x="86" y="574"/>
      <point x="108" y="551"/>
    </contour>
  </outline>
</glyph>
<glyph name="decimalseparator-ar" format="2">
  <advance width="279.5"/>
  <unicode hex="066B"/>
  <outline>
    <contour>
      <point x="56" y="-150" type="line"/>
      <point x="130" y="-150" type="line"/>
      <point x="154" y="-110"/>
      <point x="226" y="10"/>
      <point x="226" y="70" type="curve" smooth="yes"/>
      <point x="226" y="119"/>
      <point x="185" y="155"/>
      <point x="140" y="155" type="curve" smooth="yes"/>
      <point x="94" y="155"/>
      <point x="56" y="114"/>
      <point x="56" y="71" type="curve" smooth="yes"/>
      <point x="56" y="35"/>
      <point x="79" y="7"/>
      <point x="111" y="0" type="curve"/>
    </contour>
  </outline>
</glyph>
<glyph name="thousandseparator-ar" format="2">
  <advance width="326"/>
  <unicode hex="066C"/>
  <outline>
    <contour>
      <point x="128" y="0" type="curve" smooth="yes"/>
      <point x="175" y="0"/>
      <point x="212" y="41"/>
      <point x="212" y="85" type="curve" smooth="yes"/>
      <point x="212" y="121"/>
      <point x="189" y="149"/>
      <point x="158" y="155" type="curve"/>
      <point x="213" y="305" type="line"/>
      <point x="139" y="305" type="line"/>
      <point x="114" y="265"/>
      <point x="43" y="146"/>
      <point x="43" y="85" type="curve" smooth="yes"/>
      <point x="43" y="37"/>
      <point x="84" y="0"/>
    </contour>
  </outline>
</glyph>
<glyph name="asterisk-ar" format="2">
  <advance width="504.5"/>
  <unicode hex="066D"/>
  <outline>
    <contour>
      <point x="407" y="-1" type="line"/>
      <point x="412" y="3" type="line"/>
      <point x="332" y="189" type="line"/>
      <point x="492" y="279" type="line"/>
      <point x="490" y="287" type="line"/>
      <point x="303" y="279" type="line"/>
      <point x="256" y="458" type="line"/>
      <point x="249" y="458" type="line"/>
      <point x="200" y="279" type="line"/>
      <point x="15" y="287" type="line"/>
      <point x="13" y="279" type="line"/>
      <point x="171" y="187" type="line"/>
      <point x="93" y="4" type="line"/>
      <point x="98" y="0" type="line"/>
      <point x="250" y="124" type="line"/>
    </contour>
  </outline>
</glyph>
<glyph name="haa-thaana" format="2">
  <advance width="360"/>
  <unicode hex="0780"/>
  <anchor x="41" y="-4" name="b.uni07A8"/>
  <anchor x="273" y="402" name="t.uni07A6"/>
  <outline>
    <contour>
      <point x="381" y="331" type="curve"/>
      <point x="270" y="421" type="line"/>
      <point x="199" y="341"/>
      <point x="93" y="227"/>
      <point x="10" y="139" type="curve"/>
      <point x="48" y="104"/>
      <point x="94" y="63"/>
      <point x="126" y="39" type="curve"/>
      <point x="200" y="121"/>
      <point x="310" y="248"/>
    </contour>
  </outline>
</glyph>
<glyph name="shaviyani-thaana" format="2">
  <advance width="555"/>
  <unicode hex="0781"/>
  <anchor x="157" y="0" name="b.uni07A8"/>
  <anchor x="397" y="426" name="t.uni07A6"/>
  <outline>
    <contour>
      <point x="267" y="205" type="line"/>
      <point x="311" y="193"/>
      <point x="352" y="187"/>
      <point x="391" y="187" type="curve" smooth="yes"/>
      <point x="436" y="187"/>
      <point x="486" y="193"/>
      <point x="518" y="238" type="curve" smooth="yes"/>
      <point x="545" y="276"/>
      <point x="568" y="341"/>
      <point x="579" y="408" type="curve"/>
      <point x="490" y="419" type="line"/>
      <point x="485" y="403"/>
      <point x="474" y="374"/>
      <point x="465" y="355" type="curve" smooth="yes"/>
      <point x="455" y="335"/>
      <point x="448" y="327"/>
      <point x="435" y="322" type="curve" smooth="yes"/>
      <point x="421" y="317"/>
      <point x="408" y="316"/>
      <point x="390" y="316" type="curve" smooth="yes"/>
      <point x="358" y="316"/>
      <point x="323" y="324"/>
      <point x="292" y="335" type="curve"/>
    </contour>
    <component base="_part.haa" xOffset="-147"/>
  </outline>
</glyph>
<glyph name="noonu-thaana" format="2">
  <advance width="693"/>
  <unicode hex="0782"/>
  <anchor x="175" y="0" name="b.uni07A8"/>
  <anchor x="493" y="414" name="t.uni07A6"/>
  <outline>
    <contour>
      <point x="238" y="212" type="line"/>
      <point x="275" y="199"/>
      <point x="311" y="192"/>
      <point x="343" y="192" type="curve" smooth="yes"/>
      <point x="388" y="192"/>
      <point x="430" y="214"/>
      <point x="450" y="235" type="curve" smooth="yes"/>
      <point x="502" y="288"/>
      <point x="521" y="350"/>
      <point x="533" y="401" type="curve"/>
      <point x="447" y="412" type="line"/>
      <point x="441" y="396"/>
      <point x="431" y="371"/>
      <point x="422" y="352" type="curve" smooth="yes"/>
      <point x="414" y="335"/>
      <point x="407" y="327"/>
      <point x="393" y="323" type="curve" smooth="yes"/>
      <point x="382" y="320"/>
      <point x="369" y="319"/>
      <point x="356" y="319" type="curve" smooth="yes"/>
      <point x="325" y="319"/>
      <point x="294" y="330"/>
      <point x="261" y="346" type="curve"/>
    </contour>
    <contour>
      <point x="389" y="225" type="line"/>
      <point x="431" y="201"/>
      <point x="477" y="193"/>
      <point x="521" y="193" type="curve" smooth="yes"/>
      <point x="566" y="193"/>
      <point x="623" y="204"/>
      <point x="657" y="245" type="curve" smooth="yes"/>
      <point x="689" y="284"/>
      <point x="707" y="354"/>
      <point x="717" y="408" type="curve"/>
      <point x="629" y="419" type="line"/>
      <point x="624" y="405"/>
      <point x="612" y="377"/>
      <point x="604" y="360" type="curve" smooth="yes"/>
      <point x="595" y="340"/>
      <point x="588" y="332"/>
      <point x="575" y="327" type="curve" smooth="yes"/>
      <point x="561" y="322"/>
      <point x="552" y="320"/>
      <point x="533" y="320" type="curve" smooth="yes"/>
      <point x="496" y="320"/>
      <point x="458" y="334"/>
      <point x="426" y="350" type="curve"/>
    </contour>
    <component base="_part.haa" xOffset="-147"/>
  </outline>
</glyph>
<glyph name="raa-thaana" format="2">
  <advance width="490"/>
  <unicode hex="0783"/>
  <anchor x="123" y="0" name="b.uni07A8"/>
  <anchor x="394" y="414" name="t.uni07A6"/>
  <outline>
    <contour>
      <point x="-6" y="14" type="curve"/>
      <point x="19" y="-14"/>
      <point x="60" y="-52"/>
      <point x="110" y="-87" type="curve"/>
      <point x="164" y="-26"/>
      <point x="223" y="41"/>
      <point x="255" y="81" type="curve" smooth="yes"/>
      <point x="281" y="114"/>
      <point x="296" y="140"/>
      <point x="284" y="192" type="curve"/>
      <point x="228" y="162" type="line"/>
      <point x="290" y="144"/>
      <point x="348" y="131"/>
      <point x="423" y="117" type="curve"/>
      <point x="467" y="230" type="line"/>
      <point x="419" y="238"/>
      <point x="389" y="244"/>
      <point x="366" y="249" type="curve"/>
      <point x="362" y="229" type="line"/>
      <point x="373" y="244"/>
      <point x="383" y="257"/>
      <point x="402" y="280" type="curve" smooth="yes"/>
      <point x="454" y="341" type="line"/>
      <point x="354" y="429" type="line"/>
      <point x="283" y="351" type="line" smooth="yes"/>
      <point x="253" y="319"/>
      <point x="245" y="308"/>
      <point x="245" y="290" type="curve" smooth="yes"/>
      <point x="245" y="274"/>
      <point x="253" y="254"/>
      <point x="288" y="236" type="curve"/>
      <point x="329" y="258" type="line"/>
      <point x="255" y="275"/>
      <point x="193" y="293"/>
      <point x="107" y="321" type="curve"/>
      <point x="95" y="284"/>
      <point x="79" y="233"/>
      <point x="71" y="205" type="curve"/>
      <point x="102" y="194"/>
      <point x="142" y="183"/>
      <point x="201" y="169" type="curve"/>
      <point x="179" y="208" type="line"/>
      <point x="119" y="143"/>
      <point x="48" y="69"/>
    </contour>
  </outline>
</glyph>
<glyph name="baa-thaana" format="2">
  <advance width="540"/>
  <unicode hex="0784"/>
  <anchor x="132" y="0" name="b.uni07A8"/>
  <anchor x="346" y="414" name="t.uni07A6"/>
  <outline>
    <contour>
      <point x="39" y="191" type="curve" smooth="yes"/>
      <point x="39" y="95"/>
      <point x="116" y="40"/>
      <point x="218" y="40" type="curve" smooth="yes"/>
      <point x="387" y="40"/>
      <point x="530" y="137"/>
      <point x="530" y="286" type="curve" smooth="yes"/>
      <point x="530" y="351"/>
      <point x="488" y="414"/>
      <point x="407" y="414" type="curve" smooth="yes"/>
      <point x="344" y="414"/>
      <point x="298" y="372"/>
      <point x="251" y="302" type="curve"/>
      <point x="294" y="238" type="line"/>
      <point x="317" y="270"/>
      <point x="351" y="291"/>
      <point x="382" y="291" type="curve" smooth="yes"/>
      <point x="403" y="291"/>
      <point x="419" y="282"/>
      <point x="419" y="266" type="curve" smooth="yes"/>
      <point x="419" y="230"/>
      <point x="323" y="166"/>
      <point x="211" y="166" type="curve" smooth="yes"/>
      <point x="172" y="166"/>
      <point x="141" y="184"/>
      <point x="141" y="201" type="curve" smooth="yes"/>
      <point x="141" y="222"/>
      <point x="173" y="250"/>
      <point x="209" y="250" type="curve" smooth="yes"/>
      <point x="240" y="250"/>
      <point x="256" y="235"/>
      <point x="256" y="212" type="curve" smooth="yes"/>
      <point x="256" y="181"/>
      <point x="229" y="156"/>
      <point x="199" y="133" type="curve"/>
      <point x="271" y="103" type="line"/>
      <point x="309" y="144"/>
      <point x="331" y="189"/>
      <point x="331" y="235" type="curve" smooth="yes"/>
      <point x="331" y="320"/>
      <point x="272" y="369"/>
      <point x="206" y="369" type="curve" smooth="yes"/>
      <point x="117" y="369"/>
      <point x="39" y="296"/>
    </contour>
  </outline>
</glyph>
<glyph name="lhaviyani-thaana" format="2">
  <advance width="396"/>
  <unicode hex="0785"/>
  <anchor x="35" y="0" name="b.uni07A8"/>
  <anchor x="247" y="414" name="t.uni07A6"/>
  <outline>
    <contour>
      <point x="46" y="137" type="curve"/>
      <point x="79" y="106"/>
      <point x="122" y="70"/>
      <point x="163" y="39" type="curve"/>
      <point x="233" y="117"/>
      <point x="347" y="250"/>
      <point x="417" y="332" type="curve"/>
      <point x="311" y="420" type="line"/>
      <point x="271" y="375"/>
      <point x="236" y="345"/>
      <point x="208" y="345" type="curve" smooth="yes"/>
      <point x="190" y="345"/>
      <point x="181" y="354"/>
      <point x="181" y="375" type="curve" smooth="yes"/>
      <point x="181" y="387"/>
      <point x="182" y="404"/>
      <point x="184" y="413" type="curve"/>
      <point x="91" y="406" type="line"/>
      <point x="90" y="395"/>
      <point x="89" y="384"/>
      <point x="89" y="368" type="curve" smooth="yes"/>
      <point x="89" y="314"/>
      <point x="102" y="260"/>
      <point x="166" y="260" type="curve" smooth="yes"/>
      <point x="187" y="260"/>
      <point x="204" y="268"/>
      <point x="230" y="286" type="curve"/>
      <point x="205" y="309" type="line"/>
      <point x="166" y="266"/>
      <point x="100" y="194"/>
    </contour>
  </outline>
</glyph>
<glyph name="kaafu-thaana" format="2">
  <advance width="490"/>
  <unicode hex="0786"/>
  <anchor x="128" y="0" name="b.uni07A8"/>
  <anchor x="317" y="414" name="t.uni07A6"/>
  <outline>
    <contour>
      <point x="73" y="364" type="line"/>
      <point x="82" y="262"/>
      <point x="88" y="182"/>
      <point x="88" y="82" type="curve"/>
      <point x="251" y="39" type="line"/>
      <point x="310" y="106"/>
      <point x="438" y="251"/>
      <point x="511" y="332" type="curve"/>
      <point x="399" y="417" type="line"/>
      <point x="344" y="351"/>
      <point x="273" y="267"/>
      <point x="223" y="212" type="curve"/>
      <point x="230" y="220" type="line"/>
      <point x="212" y="220" type="line"/>
      <point x="220" y="215" type="line"/>
      <point x="224" y="273"/>
      <point x="225" y="332"/>
      <point x="225" y="385" type="curve"/>
    </contour>
  </outline>
</glyph>
<glyph name="alifu-thaana" format="2">
  <advance width="496"/>
  <unicode hex="0787"/>
  <anchor x="80" y="0" name="b.uni07A8"/>
  <anchor x="347" y="414" name="t.uni07A6"/>
  <outline>
    <contour>
      <point x="10" y="139" type="curve"/>
      <point x="48" y="100"/>
      <point x="89" y="66"/>
      <point x="124" y="39" type="curve"/>
      <point x="190" y="114"/>
      <point x="253" y="191"/>
      <point x="300" y="251" type="curve"/>
      <point x="283" y="247" type="line"/>
      <point x="309" y="247" type="line"/>
      <point x="305" y="250" type="line"/>
      <point x="301" y="182"/>
      <point x="295" y="111"/>
      <point x="291" y="73" type="curve"/>
      <point x="448" y="82" type="line"/>
      <point x="448" y="128"/>
      <point x="445" y="302"/>
      <point x="442" y="388" type="curve"/>
      <point x="271" y="416" type="line"/>
      <point x="202" y="339"/>
      <point x="93" y="223"/>
    </contour>
  </outline>
</glyph>
<glyph name="vaavu-thaana" format="2">
  <advance width="448"/>
  <unicode hex="0788"/>
  <anchor x="200" y="0" name="b.uni07A8"/>
  <anchor x="297" y="415" name="t.uni07A6"/>
  <outline>
    <contour>
      <point x="63" y="11" type="curve"/>
      <point x="98" y="-24"/>
      <point x="142" y="-58"/>
      <point x="180" y="-87" type="curve"/>
      <point x="249" y="-9"/>
      <point x="320" y="73"/>
      <point x="385" y="150" type="curve" smooth="yes"/>
      <point x="414" y="185"/>
      <point x="437" y="213"/>
      <point x="437" y="258" type="curve" smooth="yes"/>
      <point x="437" y="343"/>
      <point x="343" y="414"/>
      <point x="240" y="414" type="curve" smooth="yes"/>
      <point x="145" y="414"/>
      <point x="57" y="358"/>
      <point x="57" y="263" type="curve" smooth="yes"/>
      <point x="57" y="190"/>
      <point x="120" y="134"/>
      <point x="194" y="99" type="curve"/>
      <point x="270" y="145" type="line"/>
      <point x="222" y="167"/>
      <point x="185" y="190"/>
      <point x="185" y="228" type="curve" smooth="yes"/>
      <point x="185" y="271"/>
      <point x="232" y="299"/>
      <point x="276" y="299" type="curve" smooth="yes"/>
      <point x="294" y="299"/>
      <point x="305" y="294"/>
      <point x="305" y="281" type="curve" smooth="yes"/>
      <point x="305" y="271"/>
      <point x="297" y="260"/>
      <point x="236" y="194" type="curve" smooth="yes"/>
      <point x="191" y="145"/>
      <point x="125" y="74"/>
    </contour>
  </outline>
</glyph>
<glyph name="meemu-thaana" format="2">
  <advance width="380"/>
  <unicode hex="0789"/>
  <anchor x="24" y="0" name="b.uni07A8"/>
  <anchor x="256" y="414" name="t.uni07A6"/>
  <outline>
    <contour>
      <point x="60" y="139" type="curve"/>
      <point x="91" y="111"/>
      <point x="132" y="74"/>
      <point x="176" y="39" type="curve"/>
      <point x="263" y="139"/>
      <point x="330" y="217"/>
      <point x="377" y="274" type="curve"/>
      <point x="362" y="387" type="line"/>
      <point x="332" y="399"/>
      <point x="281" y="413"/>
      <point x="222" y="413" type="curve" smooth="yes"/>
      <point x="172" y="413"/>
      <point x="126" y="407"/>
      <point x="67" y="391" type="curve"/>
      <point x="72" y="357"/>
      <point x="78" y="317"/>
      <point x="86" y="273" type="curve"/>
      <point x="96" y="267" type="line"/>
      <point x="134" y="285"/>
      <point x="167" y="292"/>
      <point x="196" y="292" type="curve" smooth="yes"/>
      <point x="215" y="292"/>
      <point x="231" y="289"/>
      <point x="236" y="286" type="curve"/>
      <point x="216" y="312" type="line"/>
      <point x="216" y="279" type="line"/>
      <point x="224" y="294" type="line"/>
      <point x="196" y="267"/>
      <point x="109" y="185"/>
    </contour>
  </outline>
</glyph>
<glyph name="faafu-thaana" format="2">
  <advance width="380"/>
  <unicode hex="078A"/>
  <anchor x="126" y="0" name="b.uni07A8"/>
  <anchor x="217" y="422" name="t.uni07A6"/>
  <outline>
    <contour>
      <point x="-13" y="13" type="curve"/>
      <point x="23" y="-20"/>
      <point x="64" y="-57"/>
      <point x="104" y="-87" type="curve"/>
      <point x="197" y="17"/>
      <point x="307" y="142"/>
      <point x="336" y="177" type="curve"/>
      <point x="335" y="206"/>
      <point x="326" y="245"/>
      <point x="319" y="265" type="curve"/>
      <point x="297" y="265"/>
      <point x="251" y="264"/>
      <point x="231" y="261" type="curve"/>
      <point x="228" y="240" type="line"/>
      <point x="278" y="284"/>
      <point x="308" y="311"/>
      <point x="321" y="326" type="curve"/>
      <point x="318" y="352"/>
      <point x="310" y="379"/>
      <point x="304" y="396" type="curve"/>
      <point x="265" y="396"/>
      <point x="224" y="396"/>
      <point x="202" y="393" type="curve"/>
      <point x="227" y="382" type="line"/>
      <point x="252" y="408"/>
      <point x="269" y="428"/>
      <point x="293" y="457" type="curve"/>
      <point x="234" y="509" type="line"/>
      <point x="198" y="467"/>
      <point x="168" y="433"/>
      <point x="136" y="398" type="curve"/>
      <point x="148" y="322" type="line"/>
      <point x="172" y="324"/>
      <point x="201" y="326"/>
      <point x="228" y="327" type="curve"/>
      <point x="231" y="357" type="line"/>
      <point x="198" y="328"/>
      <point x="150" y="288"/>
      <point x="112" y="258" type="curve"/>
      <point x="123" y="184" type="line"/>
      <point x="154" y="187"/>
      <point x="199" y="190"/>
      <point x="228" y="191" type="curve"/>
      <point x="212" y="215" type="line"/>
      <point x="151" y="160"/>
      <point x="62" y="80"/>
    </contour>
  </outline>
</glyph>
<glyph name="dhaalu-thaana" format="2">
  <advance width="569"/>
  <unicode hex="078B"/>
  <anchor x="166" y="0" name="b.uni07A8"/>
  <anchor x="265" y="414" name="t.uni07A6"/>
  <anchor x="319" y="448" name="top"/>
  <outline>
    <contour>
      <point x="-35" y="14" type="curve"/>
      <point x="2" y="-22"/>
      <point x="42" y="-56"/>
      <point x="81" y="-87" type="curve"/>
      <point x="136" y="-26"/>
      <point x="194" y="39"/>
      <point x="236" y="88" type="curve" smooth="yes"/>
      <point x="281" y="140"/>
      <point x="315" y="188"/>
      <point x="315" y="237" type="curve" smooth="yes"/>
      <point x="315" y="306"/>
      <point x="267" y="338"/>
      <point x="219" y="338" type="curve" smooth="yes"/>
      <point x="153" y="338"/>
      <point x="107" y="296"/>
      <point x="107" y="244" type="curve" smooth="yes"/>
      <point x="107" y="210"/>
      <point x="124" y="179"/>
      <point x="167" y="163" type="curve"/>
      <point x="167" y="222" type="line"/>
      <point x="144" y="195"/>
      <point x="128" y="177"/>
      <point x="102" y="151" type="curve" smooth="yes"/>
      <point x="69" y="117"/>
      <point x="19" y="66"/>
    </contour>
    <component base="_part.jav" xOffset="-11" yOffset="-107"/>
  </outline>
</glyph>
<glyph name="thaa-thaana" format="2">
  <advance width="499"/>
  <unicode hex="078C"/>
  <anchor x="118" y="0" name="b.uni07A8"/>
  <anchor x="331" y="414" name="t.uni07A6"/>
  <outline>
    <contour>
      <point x="-18" y="52" type="curve"/>
      <point x="7" y="-87" type="line"/>
      <point x="96" y="-84"/>
      <point x="177" y="-61"/>
      <point x="221" y="1" type="curve"/>
      <point x="226" y="15"/>
      <point x="229" y="34"/>
      <point x="229" y="51" type="curve" smooth="yes"/>
      <point x="229" y="86"/>
      <point x="214" y="123"/>
      <point x="139" y="184" type="curve"/>
      <point x="160" y="124" type="line"/>
      <point x="201" y="167"/>
      <point x="225" y="191"/>
      <point x="266" y="230" type="curve" smooth="yes"/>
      <point x="308" y="270"/>
      <point x="352" y="302"/>
      <point x="366" y="302" type="curve" smooth="yes"/>
      <point x="375" y="302"/>
      <point x="383" y="298"/>
      <point x="383" y="287" type="curve" smooth="yes"/>
      <point x="383" y="264"/>
      <point x="353" y="200"/>
      <point x="305" y="200" type="curve" smooth="yes"/>
      <point x="272" y="200"/>
      <point x="256" y="248"/>
      <point x="249" y="291" type="curve"/>
      <point x="200" y="257" type="line"/>
      <point x="212" y="141"/>
      <point x="262" y="69"/>
      <point x="332" y="69" type="curve" smooth="yes"/>
      <point x="414" y="69"/>
      <point x="488" y="169"/>
      <point x="488" y="276" type="curve" smooth="yes"/>
      <point x="488" y="350"/>
      <point x="438" y="415"/>
      <point x="354" y="415" type="curve" smooth="yes"/>
      <point x="298" y="415"/>
      <point x="246" y="386"/>
      <point x="192" y="336" type="curve" smooth="yes"/>
      <point x="140" y="288"/>
      <point x="99" y="248"/>
      <point x="55" y="205" type="curve"/>
      <point x="41" y="111" type="line"/>
      <point x="86" y="80"/>
      <point x="113" y="50"/>
      <point x="130" y="12" type="curve"/>
      <point x="145" y="111" type="line"/>
      <point x="122" y="69"/>
      <point x="67" y="55"/>
    </contour>
  </outline>
</glyph>
<glyph name="laamu-thaana" format="2">
  <advance width="366"/>
  <unicode hex="078D"/>
  <anchor x="134" y="0" name="b.uni07A8"/>
  <anchor x="241" y="414" name="t.uni07A6"/>
  <outline>
    <contour>
      <point x="-2" y="13" type="curve"/>
      <point x="29" y="-22"/>
      <point x="70" y="-57"/>
      <point x="114" y="-87" type="curve"/>
      <point x="199" y="12"/>
      <point x="309" y="141"/>
      <point x="345" y="187" type="curve"/>
      <point x="342" y="229"/>
      <point x="330" y="275"/>
      <point x="317" y="309" type="curve"/>
      <point x="276" y="305"/>
      <point x="214" y="301"/>
      <point x="155" y="298" type="curve"/>
      <point x="197" y="273" type="line"/>
      <point x="222" y="299"/>
      <point x="251" y="332"/>
      <point x="293" y="382" type="curve"/>
      <point x="219" y="447" type="line"/>
      <point x="175" y="397"/>
      <point x="114" y="330"/>
      <point x="74" y="289" type="curve"/>
      <point x="95" y="196" type="line"/>
      <point x="134" y="199"/>
      <point x="199" y="203"/>
      <point x="235" y="203" type="curve"/>
      <point x="232" y="264" type="line"/>
      <point x="178" y="207"/>
      <point x="66" y="87"/>
    </contour>
  </outline>
</glyph>
<glyph name="gaafu-thaana" format="2">
  <advance width="440"/>
  <unicode hex="078E"/>
  <anchor x="67" y="0" name="b.uni07A8"/>
  <anchor x="279" y="414" name="t.uni07A6"/>
  <outline>
    <contour>
      <point x="-7" y="21" type="curve"/>
      <point x="42" y="6"/>
      <point x="100" y="-4"/>
      <point x="158" y="-4" type="curve" smooth="yes"/>
      <point x="226" y="-4"/>
      <point x="310" y="12"/>
      <point x="365" y="52" type="curve"/>
      <point x="376" y="71"/>
      <point x="394" y="131"/>
      <point x="394" y="174" type="curve" smooth="yes"/>
      <point x="394" y="209"/>
      <point x="335" y="266"/>
      <point x="257" y="313" type="curve"/>
      <point x="241" y="225" type="line"/>
      <point x="280" y="270"/>
      <point x="324" y="319"/>
      <point x="360" y="359" type="curve"/>
      <point x="277" y="429" type="line"/>
      <point x="230" y="378"/>
      <point x="191" y="337"/>
      <point x="152" y="298" type="curve"/>
      <point x="156" y="225" type="line"/>
      <point x="196" y="206"/>
      <point x="241" y="177"/>
      <point x="273" y="139" type="curve"/>
      <point x="280" y="158" type="line"/>
      <point x="241" y="145"/>
      <point x="211" y="139"/>
      <point x="169" y="139" type="curve" smooth="yes"/>
      <point x="124" y="139"/>
      <point x="79" y="147"/>
      <point x="27" y="165" type="curve"/>
      <point x="14" y="124"/>
      <point x="0" y="65"/>
    </contour>
  </outline>
</glyph>
<glyph name="gnaviyani-thaana" format="2">
  <advance width="612"/>
  <unicode hex="078F"/>
  <anchor x="69" y="-35" name="b.uni07A8"/>
  <anchor x="421" y="414" name="t.uni07A6"/>
  <outline>
    <contour>
      <point x="29" y="73" type="curve" smooth="yes"/>
      <point x="29" y="-14"/>
      <point x="83" y="-87"/>
      <point x="209" y="-87" type="curve" smooth="yes"/>
      <point x="255" y="-87"/>
      <point x="288" y="-82"/>
      <point x="333" y="-73" type="curve"/>
      <point x="331" y="-18"/>
      <point x="328" y="33"/>
      <point x="324" y="70" type="curve"/>
      <point x="282" y="60"/>
      <point x="244" y="56"/>
      <point x="213" y="56" type="curve" smooth="yes"/>
      <point x="160" y="56"/>
      <point x="122" y="70"/>
      <point x="122" y="100" type="curve" smooth="yes"/>
      <point x="122" y="134"/>
      <point x="176" y="170"/>
      <point x="256" y="217" type="curve"/>
      <point x="121" y="275" type="line"/>
      <point x="68" y="211"/>
      <point x="29" y="156"/>
    </contour>
    <contour>
      <point x="156" y="211" type="line"/>
      <point x="192" y="197"/>
      <point x="215" y="193"/>
      <point x="250" y="193" type="curve" smooth="yes"/>
      <point x="304" y="193"/>
      <point x="349" y="211"/>
      <point x="369" y="232" type="curve" smooth="yes"/>
      <point x="421" y="285"/>
      <point x="437" y="340"/>
      <point x="452" y="398" type="curve"/>
      <point x="362" y="409" type="line"/>
      <point x="356" y="392"/>
      <point x="347" y="370"/>
      <point x="337" y="349" type="curve" smooth="yes"/>
      <point x="331" y="336"/>
      <point x="326" y="331"/>
      <point x="314" y="326" type="curve" smooth="yes"/>
      <point x="306" y="323"/>
      <point x="296" y="322"/>
      <point x="282" y="322" type="curve" smooth="yes"/>
      <point x="246" y="322"/>
      <point x="219" y="329"/>
      <point x="180" y="348" type="curve"/>
    </contour>
    <contour>
      <point x="307" y="224" type="line"/>
      <point x="349" y="200"/>
      <point x="396" y="193"/>
      <point x="439" y="193" type="curve" smooth="yes"/>
      <point x="485" y="193"/>
      <point x="544" y="202"/>
      <point x="576" y="245" type="curve" smooth="yes"/>
      <point x="605" y="284"/>
      <point x="626" y="354"/>
      <point x="636" y="409" type="curve"/>
      <point x="545" y="420" type="line"/>
      <point x="538" y="400"/>
      <point x="529" y="377"/>
      <point x="521" y="360" type="curve" smooth="yes"/>
      <point x="512" y="341"/>
      <point x="505" y="336"/>
      <point x="494" y="332" type="curve" smooth="yes"/>
      <point x="480" y="327"/>
      <point x="470" y="325"/>
      <point x="451" y="325" type="curve" smooth="yes"/>
      <point x="415" y="325"/>
      <point x="376" y="339"/>
      <point x="345" y="355" type="curve"/>
    </contour>
    <contour>
      <point x="82" y="301" type="curve" smooth="yes"/>
      <point x="82" y="219"/>
      <point x="176" y="206"/>
      <point x="247" y="206" type="curve"/>
      <point x="267" y="233"/>
      <point x="276" y="265"/>
      <point x="276" y="294" type="curve" smooth="yes"/>
      <point x="276" y="360"/>
      <point x="233" y="390"/>
      <point x="188" y="390" type="curve" smooth="yes"/>
      <point x="117" y="390"/>
      <point x="82" y="349"/>
    </contour>
  </outline>
</glyph>
<glyph name="seenu-thaana" format="2">
  <advance width="801"/>
  <unicode hex="0790"/>
  <anchor x="334" y="0" name="b.uni07A8"/>
  <anchor x="508" y="414" name="t.uni07A6"/>
  <outline>
    <contour>
      <point x="241" y="136" type="line"/>
      <point x="277" y="133"/>
      <point x="313" y="132"/>
      <point x="353" y="132" type="curve" smooth="yes"/>
      <point x="479" y="132"/>
      <point x="603" y="147"/>
      <point x="693" y="172" type="curve" smooth="yes"/>
      <point x="751" y="188"/>
      <point x="766" y="221"/>
      <point x="782" y="260" type="curve" smooth="yes"/>
      <point x="801" y="307"/>
      <point x="815" y="363"/>
      <point x="820" y="408" type="curve"/>
      <point x="719" y="418" type="line"/>
      <point x="709" y="384"/>
      <point x="702" y="364"/>
      <point x="692" y="338" type="curve" smooth="yes"/>
      <point x="684" y="317"/>
      <point x="677" y="304"/>
      <point x="636" y="293" type="curve" smooth="yes"/>
      <point x="595" y="282"/>
      <point x="513" y="268"/>
      <point x="395" y="268" type="curve" smooth="yes"/>
      <point x="346" y="268"/>
      <point x="316" y="269"/>
      <point x="279" y="272" type="curve"/>
    </contour>
    <contour>
      <point x="15" y="88" type="curve"/>
      <point x="49" y="53"/>
      <point x="88" y="20"/>
      <point x="132" y="-11" type="curve"/>
      <point x="219" y="84"/>
      <point x="251" y="120"/>
      <point x="268" y="152" type="curve" smooth="yes"/>
      <point x="288" y="191"/>
      <point x="291" y="229"/>
      <point x="291" y="258" type="curve" smooth="yes"/>
      <point x="291" y="317"/>
      <point x="242" y="345"/>
      <point x="197" y="345" type="curve" smooth="yes"/>
      <point x="127" y="345"/>
      <point x="87" y="308"/>
      <point x="87" y="254" type="curve" smooth="yes"/>
      <point x="87" y="216"/>
      <point x="114" y="184"/>
      <point x="156" y="166" type="curve"/>
      <point x="140" y="215" type="line"/>
      <point x="109" y="182"/>
      <point x="56" y="129"/>
    </contour>
  </outline>
</glyph>
<glyph name="daviyani-thaana" format="2">
  <advance width="374"/>
  <unicode hex="0791"/>
  <anchor x="104" y="0" name="b.uni07A8"/>
  <anchor x="221" y="414" name="t.uni07A6"/>
  <outline>
    <contour>
      <point x="39" y="93" type="curve"/>
      <point x="64" y="18" type="line"/>
      <point x="129" y="-10"/>
      <point x="198" y="-38"/>
      <point x="260" y="-63" type="curve"/>
      <point x="329" y="71" type="line"/>
      <point x="260" y="98"/>
      <point x="209" y="118"/>
      <point x="147" y="144" type="curve"/>
      <point x="165" y="65" type="line"/>
      <point x="235" y="145"/>
      <point x="277" y="194"/>
      <point x="293" y="214" type="curve"/>
      <point x="291" y="236"/>
      <point x="287" y="261"/>
      <point x="283" y="285" type="curve"/>
      <point x="269" y="291"/>
      <point x="238" y="303"/>
      <point x="202" y="316" type="curve"/>
      <point x="203" y="295" type="line"/>
      <point x="242" y="338"/>
      <point x="264" y="363"/>
      <point x="293" y="397" type="curve"/>
      <point x="214" y="461" type="line"/>
      <point x="158" y="397"/>
      <point x="110" y="346"/>
      <point x="63" y="297" type="curve"/>
      <point x="78" y="218" type="line"/>
      <point x="112" y="208"/>
      <point x="165" y="189"/>
      <point x="216" y="169" type="curve"/>
      <point x="187" y="250" type="line"/>
      <point x="138" y="197"/>
      <point x="107" y="164"/>
    </contour>
  </outline>
</glyph>
<glyph name="zaviyani-thaana" format="2">
  <advance width="437"/>
  <unicode hex="0792"/>
  <anchor x="124" y="-35" name="b.uni07A8"/>
  <anchor x="351" y="414" name="t.uni07A6"/>
  <outline>
    <contour>
      <point x="81" y="78" type="curve" smooth="yes"/>
      <point x="81" y="-23"/>
      <point x="145" y="-87"/>
      <point x="272" y="-87" type="curve" smooth="yes"/>
      <point x="311" y="-87"/>
      <point x="347" y="-84"/>
      <point x="393" y="-76" type="curve"/>
      <point x="391" y="-15"/>
      <point x="389" y="32"/>
      <point x="385" y="67" type="curve"/>
      <point x="347" y="60"/>
      <point x="310" y="56"/>
      <point x="276" y="56" type="curve" smooth="yes"/>
      <point x="223" y="56"/>
      <point x="183" y="70"/>
      <point x="183" y="96" type="curve" smooth="yes"/>
      <point x="183" y="120"/>
      <point x="213" y="143"/>
      <point x="258" y="171" type="curve"/>
      <point x="130" y="212" type="line"/>
      <point x="96" y="169"/>
      <point x="81" y="121"/>
    </contour>
    <contour>
      <point x="33" y="198" type="curve"/>
      <point x="141" y="166"/>
      <point x="281" y="127"/>
      <point x="349" y="113" type="curve"/>
      <point x="393" y="221" type="line"/>
      <point x="325" y="235"/>
      <point x="282" y="245"/>
      <point x="249" y="254" type="curve"/>
      <point x="295" y="209" type="line"/>
      <point x="286" y="230"/>
      <point x="286" y="239"/>
      <point x="299" y="255" type="curve" smooth="yes"/>
      <point x="379" y="348" type="line"/>
      <point x="281" y="431" type="line"/>
      <point x="210" y="351" type="line" smooth="yes"/>
      <point x="177" y="314"/>
      <point x="167" y="295"/>
      <point x="167" y="278" type="curve" smooth="yes"/>
      <point x="167" y="259"/>
      <point x="173" y="243"/>
      <point x="204" y="222" type="curve"/>
      <point x="214" y="263" type="line"/>
      <point x="166" y="276"/>
      <point x="124" y="291"/>
      <point x="69" y="311" type="curve"/>
      <point x="57" y="276"/>
      <point x="40" y="226"/>
    </contour>
  </outline>
</glyph>
<glyph name="taviyani-thaana" format="2">
  <advance width="472"/>
  <unicode hex="0793"/>
  <anchor x="68" y="-35" name="b.uni07A8"/>
  <anchor x="310" y="414" name="t.uni07A6"/>
  <outline>
    <contour>
      <point x="24" y="60" type="curve" smooth="yes"/>
      <point x="24" y="-20"/>
      <point x="78" y="-87"/>
      <point x="205" y="-87" type="curve" smooth="yes"/>
      <point x="246" y="-87"/>
      <point x="281" y="-83"/>
      <point x="329" y="-73" type="curve"/>
      <point x="327" y="-19"/>
      <point x="324" y="33"/>
      <point x="320" y="70" type="curve"/>
      <point x="278" y="60"/>
      <point x="241" y="56"/>
      <point x="209" y="56" type="curve" smooth="yes"/>
      <point x="155" y="56"/>
      <point x="119" y="67"/>
      <point x="119" y="84" type="curve" smooth="yes"/>
      <point x="119" y="104"/>
      <point x="155" y="123"/>
      <point x="219" y="145" type="curve"/>
      <point x="123" y="221" type="line"/>
      <point x="52" y="167"/>
      <point x="24" y="125"/>
    </contour>
    <contour>
      <point x="68" y="255" type="curve" smooth="yes"/>
      <point x="68" y="157"/>
      <point x="137" y="118"/>
      <point x="220" y="118" type="curve" smooth="yes"/>
      <point x="345" y="118"/>
      <point x="483" y="192"/>
      <point x="483" y="326" type="curve" smooth="yes"/>
      <point x="483" y="389"/>
      <point x="445" y="445"/>
      <point x="383" y="445" type="curve" smooth="yes"/>
      <point x="333" y="445"/>
      <point x="292" y="410"/>
      <point x="260" y="346" type="curve"/>
      <point x="288" y="297" type="line"/>
      <point x="309" y="324"/>
      <point x="342" y="340"/>
      <point x="367" y="340" type="curve" smooth="yes"/>
      <point x="383" y="340"/>
      <point x="390" y="329"/>
      <point x="390" y="318" type="curve" smooth="yes"/>
      <point x="390" y="298"/>
      <point x="353" y="234"/>
      <point x="235" y="234" type="curve" smooth="yes"/>
      <point x="187" y="234"/>
      <point x="159" y="247"/>
      <point x="159" y="263" type="curve" smooth="yes"/>
      <point x="159" y="277"/>
      <point x="185" y="301"/>
      <point x="213" y="301" type="curve" smooth="yes"/>
      <point x="239" y="301"/>
      <point x="252" y="288"/>
      <point x="252" y="271" type="curve" smooth="yes"/>
      <point x="252" y="254"/>
      <point x="237" y="237"/>
      <point x="208" y="218" type="curve"/>
      <point x="270" y="193" type="line"/>
      <point x="297" y="221"/>
      <point x="320" y="258"/>
      <point x="320" y="300" type="curve" smooth="yes"/>
      <point x="320" y="350"/>
      <point x="277" y="405"/>
      <point x="217" y="405" type="curve" smooth="yes"/>
      <point x="142" y="405"/>
      <point x="68" y="341"/>
    </contour>
  </outline>
</glyph>
<glyph name="yaa-thaana" format="2">
  <advance width="598"/>
  <unicode hex="0794"/>
  <anchor x="122" y="0" name="b.uni07A8"/>
  <anchor x="430" y="414" name="t.uni07A6"/>
  <outline>
    <contour>
      <point x="304" y="356" type="curve"/>
      <point x="304" y="218" type="line"/>
      <point x="379" y="238"/>
      <point x="451" y="267"/>
      <point x="500" y="297" type="curve"/>
      <point x="482" y="352" type="line"/>
      <point x="437" y="252"/>
      <point x="388" y="154"/>
      <point x="354" y="91" type="curve"/>
      <point x="504" y="52" type="line"/>
      <point x="528" y="119"/>
      <point x="577" y="276"/>
      <point x="596" y="354" type="curve"/>
      <point x="530" y="417" type="line"/>
      <point x="446" y="388"/>
      <point x="382" y="367"/>
    </contour>
    <component base="_part.haa" xOffset="-147"/>
  </outline>
</glyph>
<glyph name="javiyani-thaana" format="2">
  <advance width="510"/>
  <unicode hex="0796"/>
  <anchor x="58" y="-35" name="b.uni07A8"/>
  <anchor x="233" y="414" name="t.uni07A6"/>
  <outline>
    <contour>
      <point x="16" y="73" type="curve" smooth="yes"/>
      <point x="16" y="-14"/>
      <point x="69" y="-87"/>
      <point x="197" y="-87" type="curve" smooth="yes"/>
      <point x="236" y="-87"/>
      <point x="273" y="-83"/>
      <point x="320" y="-73" type="curve"/>
      <point x="318" y="-11"/>
      <point x="315" y="36"/>
      <point x="311" y="70" type="curve"/>
      <point x="269" y="60"/>
      <point x="232" y="56"/>
      <point x="200" y="56" type="curve" smooth="yes"/>
      <point x="150" y="56"/>
      <point x="112" y="70"/>
      <point x="112" y="95" type="curve" smooth="yes"/>
      <point x="112" y="120"/>
      <point x="164" y="135"/>
      <point x="267" y="162" type="curve"/>
      <point x="195" y="242" type="line"/>
      <point x="71" y="208"/>
      <point x="16" y="148"/>
    </contour>
    <contour>
      <point x="77" y="256" type="curve" smooth="yes"/>
      <point x="77" y="187"/>
      <point x="154" y="177"/>
      <point x="219" y="177" type="curve"/>
      <point x="246" y="190"/>
      <point x="260" y="223"/>
      <point x="260" y="244" type="curve" smooth="yes"/>
      <point x="260" y="293"/>
      <point x="227" y="337"/>
      <point x="175" y="337" type="curve" smooth="yes"/>
      <point x="127" y="337"/>
      <point x="77" y="312"/>
    </contour>
    <component base="_part.jav" xOffset="-58" yOffset="-89"/>
  </outline>
</glyph>
<glyph name="ttaa-thaana" format="2">
  <advance width="529"/>
  <unicode hex="0798"/>
  <anchor x="217" y="0" name="b.uni07A8"/>
  <anchor x="392" y="414" name="t.uni07A6"/>
  <outline>
    <contour>
      <point x="155" y="324" type="curve" smooth="yes"/>
      <point x="176" y="342"/>
      <point x="178" y="364"/>
      <point x="158" y="389" type="curve" smooth="yes"/>
      <point x="140" y="412"/>
      <point x="119" y="408"/>
      <point x="94" y="388" type="curve" smooth="yes"/>
      <point x="73" y="370"/>
      <point x="71" y="348"/>
      <point x="91" y="323" type="curve" smooth="yes"/>
      <point x="109" y="300"/>
      <point x="130" y="304"/>
    </contour>
    <contour>
      <point x="138" y="454" type="curve" smooth="yes"/>
      <point x="159" y="471"/>
      <point x="161" y="493"/>
      <point x="140" y="518" type="curve" smooth="yes"/>
      <point x="123" y="541"/>
      <point x="102" y="536"/>
      <point x="77" y="516" type="curve" smooth="yes"/>
      <point x="56" y="499"/>
      <point x="54" y="477"/>
      <point x="75" y="452" type="curve" smooth="yes"/>
      <point x="92" y="429"/>
      <point x="113" y="434"/>
    </contour>
    <contour>
      <point x="253" y="411" type="curve" smooth="yes"/>
      <point x="275" y="430"/>
      <point x="277" y="451"/>
      <point x="257" y="476" type="curve" smooth="yes"/>
      <point x="238" y="499"/>
      <point x="218" y="494"/>
      <point x="195" y="475" type="curve" smooth="yes"/>
      <point x="173" y="456"/>
      <point x="171" y="435"/>
      <point x="191" y="410" type="curve" smooth="yes"/>
      <point x="210" y="387"/>
      <point x="230" y="392"/>
    </contour>
    <component base="thaa-thaana" xOffset="30"/>
  </outline>
</glyph>
<glyph name="sheenu-thaana" format="2">
  <advance width="801"/>
  <unicode hex="079D"/>
  <anchor x="393" y="0" name="b.uni07A8"/>
  <anchor x="502" y="449" name="t.uni07A6"/>
  <outline>
    <contour>
      <point x="416" y="322" type="curve" smooth="yes"/>
      <point x="449" y="322"/>
      <point x="465" y="333"/>
      <point x="465" y="363" type="curve" smooth="yes"/>
      <point x="465" y="402"/>
      <point x="450" y="408"/>
      <point x="418" y="408" type="curve" smooth="yes"/>
      <point x="385" y="408"/>
      <point x="372" y="387"/>
      <point x="372" y="354" type="curve" smooth="yes"/>
      <point x="372" y="330"/>
      <point x="392" y="322"/>
    </contour>
    <contour>
      <point x="485" y="443" type="curve" smooth="yes"/>
      <point x="518" y="443"/>
      <point x="534" y="454"/>
      <point x="534" y="484" type="curve" smooth="yes"/>
      <point x="534" y="523"/>
      <point x="518" y="529"/>
      <point x="485" y="529" type="curve" smooth="yes"/>
      <point x="453" y="529"/>
      <point x="441" y="509"/>
      <point x="441" y="479" type="curve" smooth="yes"/>
      <point x="441" y="452"/>
      <point x="460" y="443"/>
    </contour>
    <contour>
      <point x="572" y="330" type="curve" smooth="yes"/>
      <point x="599" y="330"/>
      <point x="612" y="343"/>
      <point x="612" y="372" type="curve" smooth="yes"/>
      <point x="612" y="410"/>
      <point x="594" y="415"/>
      <point x="565" y="415" type="curve" smooth="yes"/>
      <point x="531" y="415"/>
      <point x="518" y="395"/>
      <point x="518" y="364" type="curve" smooth="yes"/>
      <point x="518" y="335"/>
      <point x="542" y="330"/>
    </contour>
    <component base="seenu-thaana"/>
  </outline>
</glyph>
<glyph name="qaafu-thaana" format="2">
  <advance width="454"/>
  <unicode hex="07A4"/>
  <anchor x="114" y="0" name="b.uni07A8"/>
  <anchor x="298" y="414" name="t.uni07A6"/>
  <outline>
    <contour>
      <point x="127" y="308" type="curve" smooth="yes"/>
      <point x="146" y="330"/>
      <point x="145" y="348"/>
      <point x="122" y="369" type="curve" smooth="yes"/>
      <point x="99" y="390"/>
      <point x="79" y="384"/>
      <point x="58" y="360" type="curve" smooth="yes"/>
      <point x="37" y="337"/>
      <point x="42" y="314"/>
      <point x="64" y="295" type="curve" smooth="yes"/>
      <point x="87" y="275"/>
      <point x="108" y="287"/>
    </contour>
    <contour>
      <point x="213" y="405" type="curve" smooth="yes"/>
      <point x="232" y="427"/>
      <point x="231" y="446"/>
      <point x="208" y="466" type="curve" smooth="yes"/>
      <point x="184" y="486"/>
      <point x="166" y="481"/>
      <point x="144" y="457" type="curve" smooth="yes"/>
      <point x="123" y="435"/>
      <point x="127" y="411"/>
      <point x="150" y="392" type="curve" smooth="yes"/>
      <point x="173" y="373"/>
      <point x="194" y="384"/>
    </contour>
    <component base="gaafu-thaana" xOffset="14"/>
  </outline>
</glyph>
<glyph name="abafili-thaana" format="2">
  <unicode hex="07A6"/>
  <anchor x="190" y="414" name="_t.uni07A6"/>
  <outline>
    <contour>
      <point x="343" y="719" type="curve"/>
      <point x="290" y="757" type="line"/>
      <point x="261" y="720"/>
      <point x="188" y="641"/>
      <point x="141" y="599" type="curve"/>
      <point x="152" y="578"/>
      <point x="179" y="559"/>
      <point x="201" y="549" type="curve"/>
      <point x="250" y="598"/>
      <point x="310" y="672"/>
    </contour>
  </outline>
</glyph>
<glyph name="aabaafili-thaana" format="2">
  <unicode hex="07A7"/>
  <anchor x="211" y="414" name="_t.uni07A6"/>
  <outline>
    <contour>
      <point x="423" y="705" type="curve"/>
      <point x="373" y="738" type="line"/>
      <point x="345" y="707"/>
      <point x="275" y="634"/>
      <point x="231" y="595" type="curve"/>
      <point x="241" y="576"/>
      <point x="268" y="560"/>
      <point x="291" y="550" type="curve"/>
      <point x="336" y="594"/>
      <point x="392" y="663"/>
    </contour>
    <contour>
      <point x="296" y="725" type="curve"/>
      <point x="251" y="764" type="line"/>
      <point x="221" y="734"/>
      <point x="144" y="668"/>
      <point x="96" y="635" type="curve"/>
      <point x="104" y="615"/>
      <point x="128" y="594"/>
      <point x="150" y="581" type="curve"/>
      <point x="199" y="621"/>
      <point x="260" y="684"/>
    </contour>
  </outline>
</glyph>
<glyph name="ibifili-thaana" format="2">
  <unicode hex="07A8"/>
  <anchor x="108" y="0" name="_b.uni07A8"/>
  <outline>
    <contour>
      <point x="232" y="-145" type="curve"/>
      <point x="179" y="-107" type="line"/>
      <point x="150" y="-144"/>
      <point x="77" y="-223"/>
      <point x="30" y="-265" type="curve"/>
      <point x="41" y="-286"/>
      <point x="68" y="-305"/>
      <point x="90" y="-315" type="curve"/>
      <point x="139" y="-266"/>
      <point x="199" y="-192"/>
    </contour>
  </outline>
</glyph>
<glyph name="eebeefili-thaana" format="2">
  <unicode hex="07A9"/>
  <anchor x="124" y="0" name="_b.uni07A8"/>
  <outline>
    <contour>
      <point x="201" y="-146" type="curve"/>
      <point x="156" y="-107" type="line"/>
      <point x="126" y="-137"/>
      <point x="49" y="-203"/>
      <point x="1" y="-236" type="curve"/>
      <point x="9" y="-256"/>
      <point x="33" y="-277"/>
      <point x="55" y="-290" type="curve"/>
      <point x="104" y="-250"/>
      <point x="165" y="-187"/>
    </contour>
    <contour>
      <point x="328" y="-166" type="curve"/>
      <point x="278" y="-133" type="line"/>
      <point x="250" y="-164"/>
      <point x="180" y="-237"/>
      <point x="136" y="-276" type="curve"/>
      <point x="146" y="-295"/>
      <point x="173" y="-311"/>
      <point x="196" y="-321" type="curve"/>
      <point x="241" y="-277"/>
      <point x="297" y="-208"/>
    </contour>
  </outline>
</glyph>
<glyph name="ebefili-thaana" format="2">
  <unicode hex="07AC"/>
  <anchor x="105" y="414" name="_t.uni07A6"/>
  <outline>
    <contour>
      <point x="99" y="584" type="line"/>
      <point x="99" y="615" type="line"/>
      <point x="92" y="600" type="line"/>
      <point x="119" y="625"/>
      <point x="166" y="660"/>
      <point x="199" y="682" type="curve"/>
      <point x="190" y="702"/>
      <point x="180" y="724"/>
      <point x="171" y="743" type="curve"/>
      <point x="107" y="699"/>
      <point x="59" y="652"/>
      <point x="48" y="636" type="curve" smooth="yes"/>
      <point x="38" y="621"/>
      <point x="32" y="597"/>
      <point x="32" y="583" type="curve" smooth="yes"/>
      <point x="32" y="549"/>
      <point x="73" y="525"/>
      <point x="127" y="525" type="curve" smooth="yes"/>
      <point x="153" y="525"/>
      <point x="173" y="530"/>
      <point x="190" y="537" type="curve"/>
      <point x="190" y="555"/>
      <point x="189" y="577"/>
      <point x="186" y="601" type="curve"/>
      <point x="179" y="606" type="line"/>
      <point x="163" y="600"/>
      <point x="141" y="595"/>
      <point x="122" y="595" type="curve" smooth="yes"/>
      <point x="111" y="595"/>
      <point x="93" y="597"/>
      <point x="76" y="601" type="curve"/>
    </contour>
  </outline>
</glyph>
<glyph name="obofili-thaana" format="2">
  <unicode hex="07AE"/>
  <anchor x="244" y="415" name="_t.uni07A6"/>
  <outline>
    <contour>
      <point x="221" y="583" type="curve"/>
      <point x="227" y="547"/>
      <point x="265" y="525"/>
      <point x="319" y="525" type="curve" smooth="yes"/>
      <point x="348" y="525"/>
      <point x="371" y="529"/>
      <point x="393" y="535" type="curve"/>
      <point x="393" y="552"/>
      <point x="391" y="574"/>
      <point x="388" y="599" type="curve"/>
      <point x="382" y="604" type="line"/>
      <point x="362" y="598"/>
      <point x="337" y="595"/>
      <point x="320" y="595" type="curve" smooth="yes"/>
      <point x="298" y="595"/>
      <point x="280" y="599"/>
      <point x="265" y="609" type="curve"/>
      <point x="265" y="590" type="line"/>
      <point x="303" y="623"/>
      <point x="369" y="660"/>
      <point x="413" y="682" type="curve"/>
      <point x="406" y="703"/>
      <point x="394" y="732"/>
      <point x="386" y="750" type="curve"/>
      <point x="305" y="706"/>
      <point x="252" y="659"/>
      <point x="239" y="644" type="curve" smooth="yes"/>
      <point x="227" y="630"/>
      <point x="223" y="600"/>
    </contour>
    <contour>
      <point x="123" y="586" type="curve"/>
      <point x="132" y="562"/>
      <point x="143" y="534"/>
      <point x="151" y="520" type="curve"/>
      <point x="229" y="563"/>
      <point x="284" y="608"/>
      <point x="295" y="623" type="curve" smooth="yes"/>
      <point x="306" y="638"/>
      <point x="311" y="668"/>
      <point x="313" y="685" type="curve"/>
      <point x="307" y="721"/>
      <point x="268" y="742"/>
      <point x="215" y="742" type="curve" smooth="yes"/>
      <point x="186" y="742"/>
      <point x="160" y="737"/>
      <point x="140" y="729" type="curve"/>
      <point x="140" y="712"/>
      <point x="141" y="690"/>
      <point x="144" y="665" type="curve"/>
      <point x="151" y="661" type="line"/>
      <point x="171" y="668"/>
      <point x="196" y="673"/>
      <point x="214" y="673" type="curve" smooth="yes"/>
      <point x="236" y="673"/>
      <point x="254" y="668"/>
      <point x="269" y="659" type="curve"/>
      <point x="269" y="676" type="line"/>
      <point x="233" y="643"/>
      <point x="167" y="606"/>
    </contour>
  </outline>
</glyph>
<glyph name="oaboafili-thaana" format="2">
  <unicode hex="07AF"/>
  <anchor x="190" y="414" name="_t.uni07A6"/>
  <outline>
    <contour>
      <point x="130" y="599" type="curve" smooth="yes"/>
      <point x="130" y="549"/>
      <point x="164" y="519"/>
      <point x="224" y="519" type="curve" smooth="yes"/>
      <point x="253" y="519"/>
      <point x="283" y="526"/>
      <point x="296" y="532" type="curve"/>
      <point x="279" y="601" type="line"/>
      <point x="262" y="594"/>
      <point x="247" y="590"/>
      <point x="232" y="590" type="curve" smooth="yes"/>
      <point x="218" y="590"/>
      <point x="206" y="596"/>
      <point x="206" y="612" type="curve" smooth="yes"/>
      <point x="206" y="642"/>
      <point x="253" y="688"/>
      <point x="279" y="688" type="curve" smooth="yes"/>
      <point x="291" y="688"/>
      <point x="295" y="683"/>
      <point x="295" y="676" type="curve" smooth="yes"/>
      <point x="295" y="665"/>
      <point x="284" y="648"/>
      <point x="273" y="634" type="curve"/>
      <point x="339" y="610" type="line"/>
      <point x="354" y="639"/>
      <point x="365" y="662"/>
      <point x="365" y="688" type="curve" smooth="yes"/>
      <point x="365" y="732"/>
      <point x="335" y="759"/>
      <point x="290" y="759" type="curve" smooth="yes"/>
      <point x="215" y="759"/>
      <point x="130" y="677"/>
    </contour>
  </outline>
</glyph>
<glyph name="sukun-thaana" format="2">
  <unicode hex="07B0"/>
  <anchor x="117" y="414" name="_t.uni07A6"/>
  <outline>
    <contour>
      <point x="161" y="748" type="curve" smooth="yes"/>
      <point x="117" y="748"/>
      <point x="78" y="721"/>
      <point x="60" y="681" type="curve" smooth="yes"/>
      <point x="51" y="661"/>
      <point x="46" y="629"/>
      <point x="46" y="616" type="curve" smooth="yes"/>
      <point x="46" y="564"/>
      <point x="86" y="523"/>
      <point x="144" y="523" type="curve" smooth="yes"/>
      <point x="171" y="523"/>
      <point x="197" y="532"/>
      <point x="215" y="549" type="curve" smooth="yes"/>
      <point x="243" y="576"/>
      <point x="254" y="619"/>
      <point x="254" y="651" type="curve" smooth="yes"/>
      <point x="254" y="710"/>
      <point x="213" y="748"/>
    </contour>
    <contour>
      <point x="102" y="638" type="curve" smooth="yes"/>
      <point x="102" y="650"/>
      <point x="117" y="673"/>
      <point x="148" y="673" type="curve" smooth="yes"/>
      <point x="177" y="673"/>
      <point x="196" y="653"/>
      <point x="196" y="635" type="curve" smooth="yes"/>
      <point x="196" y="616"/>
      <point x="172" y="600"/>
      <point x="149" y="600" type="curve" smooth="yes"/>
      <point x="118" y="600"/>
      <point x="102" y="623"/>
    </contour>
  </outline>
</glyph>
<glyph name="naa-thaana" format="2">
  <advance width="397"/>
  <unicode hex="07B1"/>
  <anchor x="79" y="-35" name="b.uni07A8"/>
  <anchor x="333" y="414" name="t.uni07A6"/>
  <outline>
    <contour>
      <point x="25" y="53" type="curve" smooth="yes"/>
      <point x="25" y="-25"/>
      <point x="81" y="-87"/>
      <point x="208" y="-87" type="curve" smooth="yes"/>
      <point x="242" y="-87"/>
      <point x="280" y="-83"/>
      <point x="327" y="-72" type="curve"/>
      <point x="327" y="-32"/>
      <point x="323" y="34"/>
      <point x="319" y="69" type="curve"/>
      <point x="277" y="60"/>
      <point x="236" y="56"/>
      <point x="202" y="56" type="curve" smooth="yes"/>
      <point x="154" y="56"/>
      <point x="134" y="62"/>
      <point x="134" y="70" type="curve" smooth="yes"/>
      <point x="134" y="81"/>
      <point x="162" y="94"/>
      <point x="238" y="126" type="curve" smooth="yes"/>
      <point x="323" y="162"/>
      <point x="386" y="195"/>
      <point x="386" y="279" type="curve" smooth="yes"/>
      <point x="386" y="367"/>
      <point x="315" y="413"/>
      <point x="232" y="413" type="curve" smooth="yes"/>
      <point x="147" y="413"/>
      <point x="68" y="365"/>
      <point x="68" y="289" type="curve" smooth="yes"/>
      <point x="68" y="232"/>
      <point x="112" y="180"/>
      <point x="165" y="145" type="curve"/>
      <point x="231" y="173" type="line"/>
      <point x="197" y="197"/>
      <point x="171" y="219"/>
      <point x="171" y="248" type="curve" smooth="yes"/>
      <point x="171" y="283"/>
      <point x="210" y="309"/>
      <point x="255" y="309" type="curve" smooth="yes"/>
      <point x="280" y="309"/>
      <point x="290" y="301"/>
      <point x="290" y="290" type="curve" smooth="yes"/>
      <point x="290" y="279"/>
      <point x="283" y="266"/>
      <point x="137" y="197" type="curve" smooth="yes"/>
      <point x="60" y="161"/>
      <point x="25" y="117"/>
    </contour>
  </outline>
</glyph>
<glyph name="quoteleft" format="2">
  <advance width="222.5"/>
  <unicode hex="2018"/>
  <outline>
    <contour>
      <point x="100" y="537" type="curve" smooth="yes"/>
      <point x="158" y="537"/>
      <point x="180" y="556"/>
      <point x="180" y="594" type="curve" smooth="yes"/>
      <point x="180" y="630"/>
      <point x="171" y="638"/>
      <point x="131" y="648" type="curve"/>
      <point x="133" y="662"/>
      <point x="159" y="713"/>
      <point x="186" y="752" type="curve"/>
      <point x="103" y="791" type="line"/>
      <point x="64" y="733"/>
      <point x="21" y="644"/>
      <point x="21" y="596" type="curve" smooth="yes"/>
      <point x="21" y="553"/>
      <point x="51" y="537"/>
    </contour>
  </outline>
</glyph>
<glyph name="bismillah-ar" format="2">
  <advance width="1942"/>
  <unicode hex="FDFD"/>
  <outline>
    <contour>
      <point x="911" y="185" type="curve"/>
      <point x="953" y="191" type="line"/>
      <point x="942" y="235"/>
      <point x="928" y="298"/>
      <point x="928" y="327" type="curve" smooth="yes"/>
      <point x="928" y="377"/>
      <point x="948" y="428"/>
      <point x="1020" y="443" type="curve"/>
      <point x="1042" y="378"/>
      <point x="1053" y="340"/>
      <point x="1105" y="334" type="curve" smooth="yes"/>
      <point x="1146" y="330"/>
      <point x="1256" y="329"/>
      <point x="1296" y="334" type="curve" smooth="yes"/>
      <point x="1333" y="340"/>
      <point x="1353" y="340"/>
      <point x="1365" y="379" type="curve"/>
      <point x="1355" y="378" type="line"/>
      <point x="1356" y="341"/>
      <point x="1384" y="334"/>
      <point x="1404" y="334" type="curve" smooth="yes"/>
      <point x="1443" y="334"/>
      <point x="1456" y="341"/>
      <point x="1470" y="374" type="curve"/>
      <point x="1458" y="374" type="line"/>
      <point x="1461" y="346"/>
      <point x="1477" y="334"/>
      <point x="1511" y="334" type="curve" smooth="yes"/>
      <point x="1542" y="334"/>
      <point x="1564" y="345"/>
      <point x="1571" y="378" type="curve"/>
      <point x="1564" y="380" type="line"/>
      <point x="1570" y="353"/>
      <point x="1590" y="334"/>
      <point x="1626" y="334" type="curve" smooth="yes"/>
      <point x="1678" y="334"/>
      <point x="1704" y="353"/>
      <point x="1704" y="407" type="curve" smooth="yes"/>
      <point x="1704" y="428"/>
      <point x="1700" y="445"/>
      <point x="1696" y="466" type="curve"/>
      <point x="1654" y="456" type="line"/>
      <point x="1658" y="441"/>
      <point x="1663" y="425"/>
      <point x="1663" y="410" type="curve" smooth="yes"/>
      <point x="1663" y="385"/>
      <point x="1652" y="377"/>
      <point x="1629" y="377" type="curve" smooth="yes"/>
      <point x="1592" y="377"/>
      <point x="1587" y="396"/>
      <point x="1580" y="485" type="curve"/>
      <point x="1541" y="483" type="line"/>
      <point x="1545" y="449"/>
      <point x="1545" y="430"/>
      <point x="1545" y="411" type="curve" smooth="yes"/>
      <point x="1545" y="388"/>
      <point x="1537" y="377"/>
      <point x="1514" y="377" type="curve" smooth="yes"/>
      <point x="1488" y="377"/>
      <point x="1484" y="387"/>
      <point x="1484" y="399" type="curve" smooth="yes"/>
      <point x="1484" y="412"/>
      <point x="1488" y="437"/>
      <point x="1492" y="455" type="curve"/>
      <point x="1450" y="460" type="line"/>
      <point x="1440" y="381"/>
      <point x="1437" y="377"/>
      <point x="1408" y="377" type="curve" smooth="yes"/>
      <point x="1388" y="377"/>
      <point x="1382" y="387"/>
      <point x="1382" y="402" type="curve" smooth="yes"/>
      <point x="1382" y="413"/>
      <point x="1388" y="437"/>
      <point x="1391" y="451" type="curve"/>
      <point x="1348" y="458" type="line"/>
      <point x="1335" y="378"/>
      <point x="1329" y="382"/>
      <point x="1295" y="377" type="curve" smooth="yes"/>
      <point x="1252" y="372"/>
      <point x="1157" y="371"/>
      <point x="1109" y="377" type="curve" smooth="yes"/>
      <point x="1090" y="380"/>
      <point x="1085" y="388"/>
      <point x="1069" y="431" type="curve" smooth="yes"/>
      <point x="1053" y="479"/>
      <point x="1047" y="488"/>
      <point x="1029" y="488" type="curve" smooth="yes"/>
      <point x="990" y="488"/>
      <point x="885" y="445"/>
      <point x="885" y="327" type="curve" smooth="yes"/>
      <point x="885" y="305"/>
      <point x="894" y="244"/>
    </contour>
    <contour>
      <point x="180" y="-6" type="curve" smooth="yes"/>
      <point x="204" y="-6"/>
      <point x="219" y="3"/>
      <point x="228" y="19" type="curve"/>
      <point x="209" y="53" type="line"/>
      <point x="190" y="22"/>
      <point x="140" y="37"/>
      <point x="113" y="100" type="curve"/>
      <point x="86" y="67" type="line"/>
      <point x="118" y="0"/>
      <point x="158" y="-6"/>
    </contour>
    <contour>
      <point x="322" y="-170" type="line"/>
      <point x="353" y="-170" type="line"/>
      <point x="351" y="-103" type="line"/>
      <point x="320" y="-103" type="line"/>
    </contour>
    <contour>
      <point x="306" y="-87" type="curve" smooth="yes"/>
      <point x="318" y="-87"/>
      <point x="328" y="-77"/>
      <point x="328" y="-64" type="curve" smooth="yes"/>
      <point x="328" y="-52"/>
      <point x="318" y="-42"/>
      <point x="306" y="-42" type="curve" smooth="yes"/>
      <point x="291" y="-42"/>
      <point x="282" y="-52"/>
      <point x="282" y="-64" type="curve" smooth="yes"/>
      <point x="282" y="-77"/>
      <point x="291" y="-87"/>
    </contour>
    <contour>
      <point x="367" y="-87" type="curve" smooth="yes"/>
      <point x="380" y="-87"/>
      <point x="390" y="-77"/>
      <point x="390" y="-64" type="curve" smooth="yes"/>
      <point x="390" y="-52"/>
      <point x="380" y="-42"/>
      <point x="367" y="-42" type="curve" smooth="yes"/>
      <point x="352" y="-42"/>
      <point x="343" y="-52"/>
      <point x="343" y="-64" type="curve" smooth="yes"/>
      <point x="343" y="-77"/>
      <point x="352" y="-87"/>
    </contour>
    <contour>
      <point x="64" y="-151" type="curve"/>
      <point x="105" y="-145" type="line"/>
      <point x="94" y="-101"/>
      <point x="81" y="-38"/>
      <point x="81" y="-9" type="curve" smooth="yes"/>
      <point x="81" y="41"/>
      <point x="101" y="92"/>
      <point x="172" y="107" type="curve"/>
      <point x="194" y="42"/>
      <point x="205" y="-2"/>
      <point x="263" y="-2" type="curve" smooth="yes"/>
      <point x="292" y="-2"/>
      <point x="319" y="6"/>
      <point x="328" y="36" type="curve"/>
      <point x="319" y="34" type="line"/>
      <point x="324" y="12"/>
      <point x="346" y="-2"/>
      <point x="378" y="-2" type="curve" smooth="yes"/>
      <point x="481" y="-2"/>
      <point x="517" y="62"/>
      <point x="576" y="62" type="curve"/>
      <point x="572" y="102" type="line"/>
      <point x="563" y="102" type="line" smooth="yes"/>
      <point x="521" y="102"/>
      <point x="495" y="148"/>
      <point x="430" y="148" type="curve" smooth="yes"/>
      <point x="416" y="148"/>
      <point x="401" y="145"/>
      <point x="388" y="141" type="curve"/>
      <point x="393" y="100" type="line"/>
      <point x="407" y="104"/>
      <point x="415" y="104"/>
      <point x="430" y="104" type="curve" smooth="yes"/>
      <point x="451" y="104"/>
      <point x="479" y="93"/>
      <point x="504" y="81" type="curve"/>
      <point x="470" y="65"/>
      <point x="429" y="41"/>
      <point x="379" y="41" type="curve" smooth="yes"/>
      <point x="355" y="41"/>
      <point x="345" y="48"/>
      <point x="340" y="69" type="curve" smooth="yes"/>
      <point x="338" y="78"/>
      <point x="329" y="123"/>
      <point x="323" y="152" type="curve"/>
      <point x="281" y="145" type="line"/>
      <point x="287" y="117"/>
      <point x="292" y="90"/>
      <point x="294" y="74" type="curve" smooth="yes"/>
      <point x="298" y="46"/>
      <point x="286" y="41"/>
      <point x="266" y="41" type="curve" smooth="yes"/>
      <point x="243" y="41"/>
      <point x="237" y="53"/>
      <point x="222" y="95" type="curve" smooth="yes"/>
      <point x="206" y="143"/>
      <point x="199" y="152"/>
      <point x="181" y="152" type="curve" smooth="yes"/>
      <point x="143" y="152"/>
      <point x="38" y="109"/>
      <point x="38" y="-9" type="curve" smooth="yes"/>
      <point x="38" y="-31"/>
      <point x="47" y="-92"/>
    </contour>
    <contour>
      <point x="215" y="207" type="line"/>
      <point x="378" y="275" type="line"/>
      <point x="378" y="305" type="line"/>
      <point x="215" y="238" type="line"/>
    </contour>
    <contour>
      <point x="384" y="175" type="line"/>
      <point x="546" y="242" type="line"/>
      <point x="546" y="273" type="line"/>
      <point x="384" y="205" type="line"/>
    </contour>
    <contour>
      <point x="520" y="-84" type="line"/>
      <point x="572" y="-87"/>
      <point x="643" y="-74"/>
      <point x="649" y="8" type="curve"/>
      <point x="658" y="0"/>
      <point x="671" y="-2"/>
      <point x="685" y="-2" type="curve" smooth="yes"/>
      <point x="743" y="-2"/>
      <point x="758" y="28"/>
      <point x="756" y="83" type="curve" smooth="yes"/>
      <point x="749" y="276" type="line"/>
      <point x="705" y="276" type="line"/>
      <point x="713" y="95" type="line" smooth="yes"/>
      <point x="715" y="54"/>
      <point x="714" y="41"/>
      <point x="683" y="41" type="curve" smooth="yes"/>
      <point x="669" y="41"/>
      <point x="653" y="44"/>
      <point x="647" y="69" type="curve" smooth="yes"/>
      <point x="645" y="79"/>
      <point x="637" y="110"/>
      <point x="631" y="133" type="curve"/>
      <point x="588" y="124" type="line"/>
      <point x="596" y="95"/>
      <point x="602" y="70"/>
      <point x="608" y="37" type="curve" smooth="yes"/>
      <point x="619" y="-28"/>
      <point x="567" y="-43"/>
      <point x="519" y="-43" type="curve"/>
    </contour>
    <contour>
      <point x="493" y="343" type="curve"/>
      <point x="490" y="384" type="line"/>
      <point x="457" y="373"/>
      <point x="411" y="380"/>
      <point x="411" y="399" type="curve" smooth="yes"/>
      <point x="411" y="418"/>
      <point x="441" y="440"/>
      <point x="486" y="440" type="curve"/>
      <point x="481" y="484" type="line"/>
      <point x="421" y="478"/>
      <point x="370" y="441"/>
      <point x="370" y="395" type="curve" smooth="yes"/>
      <point x="370" y="343"/>
      <point x="434" y="324"/>
    </contour>
    <contour>
      <point x="803" y="0" type="line"/>
      <point x="847" y="0" type="line"/>
      <point x="838" y="276" type="line"/>
      <point x="795" y="276" type="line"/>
    </contour>
    <contour>
      <point x="550" y="305" type="curve" smooth="yes"/>
      <point x="587" y="305"/>
      <point x="607" y="315"/>
      <point x="617" y="332" type="curve"/>
      <point x="625" y="317"/>
      <point x="642" y="305"/>
      <point x="670" y="305" type="curve" smooth="yes"/>
      <point x="737" y="305"/>
      <point x="751" y="339"/>
      <point x="749" y="398" type="curve" smooth="yes"/>
      <point x="741" y="583" type="line"/>
      <point x="697" y="583" type="line"/>
      <point x="705" y="398" type="line" smooth="yes"/>
      <point x="706" y="359"/>
      <point x="701" y="348"/>
      <point x="670" y="348" type="curve" smooth="yes"/>
      <point x="645" y="348"/>
      <point x="634" y="360"/>
      <point x="632" y="398" type="curve" smooth="yes"/>
      <point x="627" y="542" type="line"/>
      <point x="584" y="542" type="line"/>
      <point x="589" y="398" type="line" smooth="yes"/>
      <point x="590" y="359"/>
      <point x="589" y="348"/>
      <point x="554" y="348" type="curve" smooth="yes"/>
      <point x="525" y="348"/>
      <point x="516" y="359"/>
      <point x="514" y="390" type="curve" smooth="yes"/>
      <point x="508" y="507" type="line"/>
      <point x="466" y="507" type="line"/>
      <point x="471" y="373" type="line" smooth="yes"/>
      <point x="474" y="321"/>
      <point x="502" y="305"/>
    </contour>
    <contour>
      <point x="988" y="103" type="curve" smooth="yes"/>
      <point x="1005" y="103"/>
      <point x="1018" y="117"/>
      <point x="1018" y="133" type="curve" smooth="yes"/>
      <point x="1018" y="148"/>
      <point x="1005" y="162"/>
      <point x="988" y="162" type="curve" smooth="yes"/>
      <point x="970" y="162"/>
      <point x="958" y="148"/>
      <point x="958" y="133" type="curve" smooth="yes"/>
      <point x="958" y="117"/>
      <point x="970" y="103"/>
    </contour>
    <contour>
      <point x="574" y="557" type="curve" smooth="yes"/>
      <point x="592" y="557"/>
      <point x="606" y="571"/>
      <point x="606" y="590" type="curve"/>
      <point x="595" y="595" type="line"/>
      <point x="595" y="579"/>
      <point x="608" y="570"/>
      <point x="625" y="570" type="curve" smooth="yes"/>
      <point x="649" y="570"/>
      <point x="660" y="587"/>
      <point x="660" y="607" type="curve" smooth="yes"/>
      <point x="660" y="619"/>
      <point x="656" y="634"/>
      <point x="651" y="646" type="curve"/>
      <point x="626" y="638" type="line"/>
      <point x="630" y="629"/>
      <point x="633" y="619"/>
      <point x="633" y="610" type="curve" smooth="yes"/>
      <point x="633" y="603"/>
      <point x="631" y="597"/>
      <point x="623" y="597" type="curve" smooth="yes"/>
      <point x="616" y="597"/>
      <point x="615" y="602"/>
      <point x="615" y="607" type="curve"/>
      <point x="615" y="634" type="line"/>
      <point x="590" y="625" type="line"/>
      <point x="590" y="613" type="line"/>
      <point x="589" y="591"/>
      <point x="585" y="586"/>
      <point x="579" y="586" type="curve" smooth="yes"/>
      <point x="574" y="586"/>
      <point x="573" y="590"/>
      <point x="573" y="598" type="curve" smooth="yes"/>
      <point x="573" y="603"/>
      <point x="574" y="611"/>
      <point x="575" y="619" type="curve"/>
      <point x="548" y="614" type="line"/>
      <point x="547" y="605"/>
      <point x="546" y="596"/>
      <point x="546" y="589" type="curve" smooth="yes"/>
      <point x="546" y="572"/>
      <point x="554" y="557"/>
    </contour>
    <contour>
      <point x="992" y="-104" type="curve" smooth="yes"/>
      <point x="1088" y="-104"/>
      <point x="1116" y="-45"/>
      <point x="1119" y="11" type="curve"/>
      <point x="1128" y="3"/>
      <point x="1139" y="-2"/>
      <point x="1158" y="-2" type="curve" smooth="yes"/>
      <point x="1191" y="-2"/>
      <point x="1202" y="12"/>
      <point x="1225" y="58" type="curve" smooth="yes"/>
      <point x="1244" y="96"/>
      <point x="1261" y="108"/>
      <point x="1279" y="108" type="curve"/>
      <point x="1317" y="21"/>
      <point x="1329" y="-2"/>
      <point x="1382" y="-2" type="curve" smooth="yes"/>
      <point x="1486" y="-2"/>
      <point x="1522" y="62"/>
      <point x="1581" y="62" type="curve"/>
      <point x="1578" y="102" type="line"/>
      <point x="1569" y="102" type="line" smooth="yes"/>
      <point x="1527" y="102"/>
      <point x="1500" y="148"/>
      <point x="1435" y="148" type="curve" smooth="yes"/>
      <point x="1421" y="148"/>
      <point x="1406" y="145"/>
      <point x="1393" y="141" type="curve"/>
      <point x="1399" y="100" type="line"/>
      <point x="1412" y="104"/>
      <point x="1421" y="104"/>
      <point x="1435" y="104" type="curve" smooth="yes"/>
      <point x="1457" y="104"/>
      <point x="1485" y="93"/>
      <point x="1510" y="81" type="curve"/>
      <point x="1475" y="65"/>
      <point x="1434" y="41"/>
      <point x="1384" y="41" type="curve" smooth="yes"/>
      <point x="1357" y="41"/>
      <point x="1350" y="49"/>
      <point x="1333" y="83" type="curve" smooth="yes"/>
      <point x="1308" y="132"/>
      <point x="1306" y="147"/>
      <point x="1281" y="147" type="curve" smooth="yes"/>
      <point x="1258" y="147"/>
      <point x="1227" y="135"/>
      <point x="1200" y="88" type="curve" smooth="yes"/>
      <point x="1184" y="59"/>
      <point x="1179" y="41"/>
      <point x="1153" y="41" type="curve" smooth="yes"/>
      <point x="1135" y="41"/>
      <point x="1122" y="49"/>
      <point x="1117" y="65" type="curve" smooth="yes"/>
      <point x="1114" y="73"/>
      <point x="1106" y="104"/>
      <point x="1102" y="119" type="curve"/>
      <point x="1060" y="106" type="line"/>
      <point x="1069" y="78"/>
      <point x="1080" y="43"/>
      <point x="1080" y="15" type="curve" smooth="yes"/>
      <point x="1080" y="-22"/>
      <point x="1060" y="-60"/>
      <point x="994" y="-60" type="curve" smooth="yes"/>
      <point x="958" y="-60"/>
      <point x="920" y="-48"/>
      <point x="920" y="-12" type="curve" smooth="yes"/>
      <point x="920" y="1"/>
      <point x="925" y="21"/>
      <point x="938" y="48" type="curve"/>
      <point x="900" y="63" type="line"/>
      <point x="885" y="29"/>
      <point x="878" y="10"/>
      <point x="878" y="-14" type="curve" smooth="yes"/>
      <point x="878" y="-80"/>
      <point x="932" y="-104"/>
    </contour>
    <contour>
      <point x="796" y="307" type="line"/>
      <point x="839" y="307" type="line"/>
      <point x="831" y="583" type="line"/>
      <point x="788" y="583" type="line"/>
    </contour>
    <contour>
      <point x="1297" y="-7" type="curve" smooth="yes"/>
      <point x="1315" y="-7"/>
      <point x="1335" y="4"/>
      <point x="1343" y="19" type="curve"/>
      <point x="1326" y="52" type="line"/>
      <point x="1307" y="23"/>
      <point x="1259" y="34"/>
      <point x="1229" y="83" type="curve"/>
      <point x="1204" y="52" type="line"/>
      <point x="1239" y="0"/>
      <point x="1272" y="-7"/>
    </contour>
    <contour>
      <point x="1028" y="330" type="curve" smooth="yes"/>
      <point x="1051" y="330"/>
      <point x="1066" y="339"/>
      <point x="1075" y="355" type="curve"/>
      <point x="1056" y="389" type="line"/>
      <point x="1037" y="358"/>
      <point x="988" y="373"/>
      <point x="960" y="436" type="curve"/>
      <point x="934" y="403" type="line"/>
      <point x="966" y="336"/>
      <point x="1006" y="330"/>
    </contour>
    <contour>
      <point x="1161" y="177" type="line"/>
      <point x="1193" y="177" type="line"/>
      <point x="1190" y="258" type="line"/>
      <point x="1159" y="258" type="line"/>
    </contour>
    <contour>
      <point x="1333" y="183" type="line"/>
      <point x="1396" y="183"/>
      <point x="1436" y="221"/>
      <point x="1447" y="252" type="curve"/>
      <point x="1428" y="269"/>
      <point x="1385" y="284"/>
      <point x="1367" y="284" type="curve" smooth="yes"/>
      <point x="1352" y="284"/>
      <point x="1336" y="272"/>
      <point x="1327" y="260" type="curve"/>
      <point x="1344" y="239" type="line"/>
      <point x="1353" y="250"/>
      <point x="1362" y="254"/>
      <point x="1366" y="254" type="curve" smooth="yes"/>
      <point x="1380" y="254"/>
      <point x="1407" y="244"/>
      <point x="1422" y="235" type="curve"/>
      <point x="1421" y="259" type="line"/>
      <point x="1412" y="242"/>
      <point x="1382" y="212"/>
      <point x="1329" y="212" type="curve"/>
    </contour>
    <contour>
      <point x="1205" y="461" type="curve" smooth="yes"/>
      <point x="1237" y="461"/>
      <point x="1258" y="485"/>
      <point x="1258" y="517" type="curve" smooth="yes"/>
      <point x="1258" y="547"/>
      <point x="1237" y="575"/>
      <point x="1207" y="575" type="curve" smooth="yes"/>
      <point x="1177" y="575"/>
      <point x="1155" y="547"/>
      <point x="1155" y="514" type="curve" smooth="yes"/>
      <point x="1155" y="485"/>
      <point x="1171" y="461"/>
    </contour>
    <contour>
      <point x="1205" y="493" type="curve" smooth="yes"/>
      <point x="1191" y="493"/>
      <point x="1184" y="504"/>
      <point x="1184" y="517" type="curve" smooth="yes"/>
      <point x="1184" y="528"/>
      <point x="1192" y="543"/>
      <point x="1206" y="543" type="curve" smooth="yes"/>
      <point x="1218" y="543"/>
      <point x="1229" y="529"/>
      <point x="1229" y="516" type="curve" smooth="yes"/>
      <point x="1229" y="501"/>
      <point x="1218" y="493"/>
    </contour>
    <contour>
      <point x="1554" y="-84" type="line"/>
      <point x="1606" y="-87"/>
      <point x="1677" y="-74"/>
      <point x="1683" y="8" type="curve"/>
      <point x="1692" y="0"/>
      <point x="1705" y="-2"/>
      <point x="1718" y="-2" type="curve" smooth="yes"/>
      <point x="1777" y="-2"/>
      <point x="1792" y="28"/>
      <point x="1790" y="83" type="curve" smooth="yes"/>
      <point x="1783" y="267" type="line"/>
      <point x="1739" y="267" type="line"/>
      <point x="1747" y="95" type="line" smooth="yes"/>
      <point x="1749" y="54"/>
      <point x="1748" y="41"/>
      <point x="1717" y="41" type="curve" smooth="yes"/>
      <point x="1703" y="41"/>
      <point x="1687" y="44"/>
      <point x="1681" y="69" type="curve" smooth="yes"/>
      <point x="1678" y="79"/>
      <point x="1670" y="110"/>
      <point x="1665" y="133" type="curve"/>
      <point x="1622" y="124" type="line"/>
      <point x="1629" y="95"/>
      <point x="1636" y="70"/>
      <point x="1642" y="37" type="curve" smooth="yes"/>
      <point x="1654" y="-28"/>
      <point x="1600" y="-43"/>
      <point x="1553" y="-43" type="curve"/>
    </contour>
    <contour>
      <point x="1663" y="239" type="curve" smooth="yes"/>
      <point x="1680" y="239"/>
      <point x="1693" y="253"/>
      <point x="1693" y="269" type="curve" smooth="yes"/>
      <point x="1693" y="284"/>
      <point x="1680" y="298"/>
      <point x="1663" y="298" type="curve" smooth="yes"/>
      <point x="1645" y="298"/>
      <point x="1633" y="284"/>
      <point x="1633" y="269" type="curve" smooth="yes"/>
      <point x="1633" y="253"/>
      <point x="1645" y="239"/>
    </contour>
    <contour>
      <point x="1840" y="0" type="line"/>
      <point x="1883" y="0" type="line"/>
      <point x="1876" y="267" type="line"/>
      <point x="1832" y="267" type="line"/>
    </contour>
    <contour>
      <point x="1809" y="301" type="curve" smooth="yes"/>
      <point x="1861" y="301"/>
      <point x="1876" y="330"/>
      <point x="1876" y="350" type="curve" smooth="yes"/>
      <point x="1876" y="375"/>
      <point x="1855" y="388"/>
      <point x="1835" y="388" type="curve" smooth="yes"/>
      <point x="1802" y="388"/>
      <point x="1779" y="356"/>
      <point x="1766" y="328" type="curve"/>
      <point x="1762" y="329"/>
      <point x="1755" y="330"/>
      <point x="1750" y="331" type="curve"/>
      <point x="1748" y="306" type="line"/>
      <point x="1761" y="304"/>
      <point x="1791" y="301"/>
    </contour>
    <contour>
      <point x="1811" y="326" type="curve" smooth="yes"/>
      <point x="1807" y="326"/>
      <point x="1803" y="326"/>
      <point x="1796" y="327" type="curve"/>
      <point x="1806" y="349"/>
      <point x="1821" y="360"/>
      <point x="1832" y="360" type="curve" smooth="yes"/>
      <point x="1838" y="360"/>
      <point x="1847" y="357"/>
      <point x="1847" y="346" type="curve" smooth="yes"/>
      <point x="1847" y="335"/>
      <point x="1836" y="326"/>
    </contour>
  </outline>
</glyph>
<glyph name="_part.haa" format="2">
  <advance width="600"/>
  <outline>
    <contour>
      <point x="95" y="13" type="curve"/>
      <point x="127" y="-23"/>
      <point x="172" y="-58"/>
      <point x="211" y="-87" type="curve"/>
      <point x="280" y="-8"/>
      <point x="355" y="78"/>
      <point x="407" y="138" type="curve" smooth="yes"/>
      <point x="463" y="203"/>
      <point x="491" y="241"/>
      <point x="491" y="295" type="curve" smooth="yes"/>
      <point x="491" y="359"/>
      <point x="447" y="395"/>
      <point x="398" y="395" type="curve" smooth="yes"/>
      <point x="337" y="395"/>
      <point x="296" y="361"/>
      <point x="296" y="312" type="curve" smooth="yes"/>
      <point x="296" y="280"/>
      <point x="311" y="244"/>
      <point x="351" y="227" type="curve"/>
      <point x="349" y="279" type="line"/>
      <point x="330" y="258"/>
      <point x="309" y="236"/>
      <point x="284" y="210" type="curve" smooth="yes"/>
      <point x="232" y="155"/>
      <point x="151" y="70"/>
    </contour>
  </outline>
</glyph>
<glyph name="_part.jav" format="2">
  <advance width="563.25"/>
  <outline>
    <contour>
      <point x="494" y="614" type="line"/>
      <point x="448" y="578"/>
      <point x="409" y="551"/>
      <point x="368" y="523" type="curve"/>
      <point x="347" y="449" type="line"/>
      <point x="397" y="422"/>
      <point x="452" y="386"/>
      <point x="466" y="335" type="curve"/>
      <point x="521" y="397" type="line"/>
      <point x="491" y="375"/>
      <point x="441" y="365"/>
      <point x="392" y="365" type="curve" smooth="yes"/>
      <point x="348" y="365"/>
      <point x="304" y="372"/>
      <point x="268" y="385" type="curve"/>
      <point x="268" y="239" type="line"/>
      <point x="300" y="233"/>
      <point x="330" y="232"/>
      <point x="345" y="232" type="curve" smooth="yes"/>
      <point x="431" y="232"/>
      <point x="502" y="253"/>
      <point x="535" y="283" type="curve"/>
      <point x="552" y="313"/>
      <point x="570" y="354"/>
      <point x="570" y="381" type="curve" smooth="yes"/>
      <point x="570" y="424"/>
      <point x="524" y="479"/>
      <point x="449" y="524" type="curve"/>
      <point x="449" y="457" type="line"/>
      <point x="486" y="484"/>
      <point x="517" y="507"/>
      <point x="563" y="544" type="curve"/>
    </contour>
  </outline>
</glyph>
<glyph name="allah-ar" format="2">
  <advance width="1312.5"/>
  <outline>
    <contour>
      <point x="492" y="-5" type="curve" smooth="yes"/>
      <point x="567" y="-5"/>
      <point x="612" y="15"/>
      <point x="642" y="62" type="curve"/>
      <point x="670" y="13"/>
      <point x="725" y="-5"/>
      <point x="786" y="-5" type="curve" smooth="yes"/>
      <point x="986" y="-5"/>
      <point x="1008" y="77"/>
      <point x="1003" y="208" type="curve" smooth="yes"/>
      <point x="986" y="678" type="line"/>
      <point x="848" y="678" type="line"/>
      <point x="864" y="221" type="line" smooth="yes"/>
      <point x="867" y="133"/>
      <point x="861" y="115"/>
      <point x="794" y="115" type="curve" smooth="yes"/>
      <point x="722" y="115"/>
      <point x="711" y="135"/>
      <point x="708" y="229" type="curve" smooth="yes"/>
      <point x="699" y="577" type="line"/>
      <point x="562" y="577" type="line"/>
      <point x="569" y="228" type="line" smooth="yes"/>
      <point x="572" y="139"/>
      <point x="568" y="115"/>
      <point x="500" y="115" type="curve" smooth="yes"/>
      <point x="435" y="115"/>
      <point x="419" y="131"/>
      <point x="417" y="198" type="curve" smooth="yes"/>
      <point x="402" y="557" type="line"/>
      <point x="270" y="557" type="line"/>
      <point x="274" y="444" type="line"/>
      <point x="132" y="411"/>
      <point x="31" y="334"/>
      <point x="31" y="217" type="curve" smooth="yes"/>
      <point x="31" y="89"/>
      <point x="162" y="48"/>
      <point x="308" y="72" type="curve"/>
      <point x="338" y="15"/>
      <point x="401" y="-5"/>
    </contour>
    <contour>
      <point x="286" y="178" type="line"/>
      <point x="222" y="165"/>
      <point x="161" y="181"/>
      <point x="161" y="226" type="curve" smooth="yes"/>
      <point x="161" y="275"/>
      <point x="213" y="317"/>
      <point x="279" y="330" type="curve"/>
    </contour>
    <contour>
      <point x="1128" y="-1" type="line"/>
      <point x="1266" y="-1" type="line"/>
      <point x="1249" y="678" type="line"/>
      <point x="1111" y="678" type="line"/>
    </contour>
    <contour>
      <point x="556" y="629" type="curve" smooth="yes"/>
      <point x="591" y="629"/>
      <point x="621" y="659"/>
      <point x="621" y="711" type="curve"/>
      <point x="604" y="716" type="line"/>
      <point x="604" y="677"/>
      <point x="631" y="657"/>
      <point x="658" y="657" type="curve" smooth="yes"/>
      <point x="713" y="657"/>
      <point x="735" y="693"/>
      <point x="735" y="742" type="curve" smooth="yes"/>
      <point x="735" y="765"/>
      <point x="727" y="795"/>
      <point x="717" y="815" type="curve"/>
      <point x="664" y="804" type="line"/>
      <point x="671" y="785"/>
      <point x="676" y="765"/>
      <point x="676" y="745" type="curve" smooth="yes"/>
      <point x="676" y="724"/>
      <point x="671" y="710"/>
      <point x="653" y="710" type="curve" smooth="yes"/>
      <point x="642" y="710"/>
      <point x="637" y="719"/>
      <point x="637" y="737" type="curve"/>
      <point x="637" y="792" type="line"/>
      <point x="586" y="779" type="line"/>
      <point x="586" y="747" type="line"/>
      <point x="586" y="698"/>
      <point x="577" y="685"/>
      <point x="565" y="685" type="curve" smooth="yes"/>
      <point x="552" y="685"/>
      <point x="547" y="695"/>
      <point x="547" y="717" type="curve" smooth="yes"/>
      <point x="547" y="729"/>
      <point x="549" y="746"/>
      <point x="552" y="766" type="curve"/>
      <point x="492" y="756" type="line"/>
      <point x="489" y="738"/>
      <point x="487" y="724"/>
      <point x="487" y="711" type="curve" smooth="yes"/>
      <point x="487" y="665"/>
      <point x="501" y="629"/>
    </contour>
    <contour>
      <point x="567" y="839" type="line"/>
      <point x="643" y="839" type="line"/>
      <point x="639" y="967" type="line"/>
      <point x="563" y="967" type="line"/>
    </contour>
  </outline>
</glyph>
<glyph name="dotabove" format="2">
  <anchor x="324" y="595" name="_top"/>
  <outline>
    <contour>
      <point x="325" y="620" type="curve" smooth="yes"/>
      <point x="356" y="620"/>
      <point x="372" y="632"/>
      <point x="372" y="671" type="curve" smooth="yes"/>
      <point x="372" y="710"/>
      <point x="357" y="722"/>
      <point x="320" y="722" type="curve" smooth="yes"/>
      <point x="285" y="722"/>
      <point x="270" y="703"/>
      <point x="270" y="661" type="curve" smooth="yes"/>
      <point x="270" y="628"/>
      <point x="289" y="620"/>
    </contour>
  </outline>
</glyph>
<glyph name="dotbelow" format="2">
  <anchor x="328" y="0" name="_bottom"/>
  <outline>
    <contour>
      <point x="334" y="-148" type="curve" smooth="yes"/>
      <point x="365" y="-148"/>
      <point x="380" y="-136"/>
      <point x="380" y="-97" type="curve" smooth="yes"/>
      <point x="380" y="-58"/>
      <point x="365" y="-45"/>
      <point x="329" y="-45" type="curve" smooth="yes"/>
      <point x="294" y="-45"/>
      <point x="278" y="-65"/>
      <point x="278" y="-106" type="curve" smooth="yes"/>
      <point x="278" y="-140"/>
      <point x="298" y="-148"/>
    </contour>
  </outline>
</glyph>
